<svg width="14" height="14" viewBox="0 0 14 14" fill="none" xmlns="http://www.w3.org/2000/svg">
<path d="M5.57801 13.998C5.14453 13.998 4.73397 13.795 4.4709 13.445L0.910416 8.72401C0.800336 8.57822 0.719971 8.41208 0.673915 8.23509C0.627858 8.0581 0.617014 7.87374 0.642002 7.69255C0.666989 7.51135 0.727319 7.33688 0.819541 7.1791C0.911764 7.02131 1.03407 6.88332 1.17947 6.773C1.32482 6.66223 1.49052 6.58132 1.66708 6.53493C1.84365 6.48854 2.0276 6.47757 2.20839 6.50265C2.38919 6.52773 2.56327 6.58838 2.72067 6.6811C2.87807 6.77382 3.01568 6.89681 3.12563 7.043L5.46839 10.147L11.3587 0.654966C11.554 0.341563 11.8653 0.118709 12.2241 0.0352854C12.583 -0.0481381 12.9602 0.0146809 13.273 0.209963C13.9237 0.615965 14.124 1.47597 13.7174 2.12997L6.75786 13.34C6.63905 13.5323 6.4753 13.6925 6.28081 13.8068C6.08632 13.9211 5.86696 13.9861 5.64178 13.996C5.61986 13.998 5.59993 13.998 5.57801 13.998V13.998Z" fill="#333333"/>
</svg>
