<svg width="34" height="34" viewBox="0 0 34 34" fill="none" xmlns="http://www.w3.org/2000/svg">
<path d="M6.13516 0C2.73655 0 0 2.73655 0 6.13516V27.4649C0 30.8635 2.73655 33.6 6.13516 33.6H17.6957V20.4645H14.2223V15.7353H17.6957V11.6949C17.6957 8.52056 19.7479 5.60596 24.4755 5.60596C26.3896 5.60596 27.8051 5.78972 27.8051 5.78972L27.6938 10.206C27.6938 10.206 26.2502 10.1924 24.675 10.1924C22.9702 10.1924 22.6968 10.9779 22.6968 12.2819V15.7353H27.8292L27.6056 20.4645H22.6968V33.6001H27.4648C30.8634 33.6001 33.6 30.8635 33.6 27.4649V6.13519C33.6 2.73659 30.8634 3.36e-05 27.4648 3.36e-05H6.13512L6.13516 0Z" fill="#333333"/>
</svg>
