<svg width="77" height="15" viewBox="0 0 77 15" fill="none" xmlns="http://www.w3.org/2000/svg">
<path d="M15 5.55H9.275L7.5 0L5.725 5.55H0L4.625 8.975L2.875 14.5L7.5 11.075L12.125 14.5L10.35 8.95L15 5.55Z" fill="#FF352B"/>
<path d="M30.5 5.55H24.775L23 0L21.225 5.55H15.5L20.125 8.975L18.375 14.5L23 11.075L27.625 14.5L25.85 8.95L30.5 5.55Z" fill="#FF352B"/>
<path d="M46 5.55H40.275L38.5 0L36.725 5.55H31L35.625 8.975L33.875 14.5L38.5 11.075L43.125 14.5L41.35 8.95L46 5.55Z" fill="#FF352B"/>
<path d="M61.5 5.55H55.775L54 0L52.225 5.55H46.5L51.125 8.975L49.375 14.5L54 11.075L58.625 14.5L56.85 8.95L61.5 5.55Z" fill="#FF352B"/>
<path d="M77 5.55H71.275L69.5 0L67.725 5.55H62L66.625 8.975L64.875 14.5L69.5 11.075L74.125 14.5L72.35 8.95L77 5.55Z" fill="#FF352B"/>
</svg>
