<svg width="34" height="34" viewBox="0 0 34 34" fill="none" xmlns="http://www.w3.org/2000/svg">
<path d="M3.73333 0C2.74319 0 1.7936 0.393332 1.09347 1.09347C0.393332 1.7936 0 2.74319 0 3.73333V29.8667C0 30.8568 0.393332 31.8064 1.09347 32.5065C1.7936 33.2067 2.74319 33.6 3.73333 33.6H29.8667C30.8568 33.6 31.8064 33.2067 32.5065 32.5065C33.2067 31.8064 33.6 30.8568 33.6 29.8667V3.73333C33.6 2.74319 33.2067 1.7936 32.5065 1.09347C31.8064 0.393332 30.8568 0 29.8667 0H3.73333ZM4.66667 10.2667H7.46667C8.13867 10.2667 8.4 10.5653 8.66133 11.3307C10.0053 15.2507 12.264 18.6667 13.1973 18.6667C13.552 18.6667 13.72 18.5173 13.72 17.64V13.5893C13.608 11.7227 12.6187 11.5547 12.6187 10.9013C12.6187 10.584 12.88 10.2667 13.328 10.2667H17.64C18.2373 10.2667 18.424 10.584 18.424 11.2747V16.7253C18.424 17.304 18.6667 17.5093 18.8533 17.5093C19.208 17.5093 19.5067 17.304 20.1413 16.6693C22.12 14.448 23.52 11.0507 23.52 11.0507C23.7067 10.64 24.024 10.2667 24.7147 10.2667H27.4587C28.2987 10.2667 28.4853 10.696 28.2987 11.2747C27.944 12.88 24.6027 17.6027 24.6027 17.6027C24.2667 18.0693 24.192 18.2933 24.6027 18.8347C24.8827 19.2267 25.8533 20.048 26.488 20.8133C27.6827 22.1387 28.56 23.2587 28.8213 24.024C29.0453 24.808 28.6533 25.2 27.8693 25.2H25.1067C24.0613 25.2 23.7627 24.36 21.896 22.4933C20.2533 20.9253 19.6 20.72 19.152 20.72C18.592 20.72 18.424 20.8693 18.424 21.672V24.136C18.424 24.808 18.2187 25.2 16.464 25.2C13.552 25.2 10.3413 23.4267 8.08267 20.16C4.66667 15.3813 3.73333 11.7787 3.73333 11.0507C3.73333 10.64 3.88267 10.2667 4.66667 10.2667Z" fill="#333333"/>
</svg>
