<svg width="48" height="48" viewBox="0 0 48 48" fill="none" xmlns="http://www.w3.org/2000/svg">
<path d="M24.285 42.57C34.3835 42.57 42.57 34.3835 42.57 24.285C42.57 14.1865 34.3835 6 24.285 6C14.1865 6 6 14.1865 6 24.285C6 34.3835 14.1865 42.57 24.285 42.57Z" fill="url(#paint0_radial_20_140)"/>
<path opacity="0.5" d="M24.285 42.57C34.3835 42.57 42.57 34.3835 42.57 24.285C42.57 14.1865 34.3835 6 24.285 6C14.1865 6 6 14.1865 6 24.285C6 34.3835 14.1865 42.57 24.285 42.57Z" fill="url(#paint1_radial_20_140)"/>
<path d="M24.285 42.57C34.3835 42.57 42.57 34.3835 42.57 24.285C42.57 14.1865 34.3835 6 24.285 6C14.1865 6 6 14.1865 6 24.285C6 34.3835 14.1865 42.57 24.285 42.57Z" fill="url(#paint2_radial_20_140)"/>
<path d="M12.69 17.1969C12.733 18.0789 13.5612 18.5844 14.9165 18.5091C16.0781 18.4446 18.5735 17.541 20.1761 14.7445C20.4665 14.2282 19.961 13.9809 19.6598 14.325C18.6488 15.4759 15.8415 17.0463 13.572 16.8742C12.6685 16.8096 12.69 17.1969 12.69 17.1969Z" fill="url(#paint3_linear_20_140)"/>
<path d="M18.3158 25.0594C19.29 25.0594 20.0797 23.87 20.0797 22.4027C20.0797 20.9354 19.29 19.746 18.3158 19.746C17.3415 19.746 16.5518 20.9354 16.5518 22.4027C16.5518 23.87 17.3415 25.0594 18.3158 25.0594Z" fill="url(#paint4_radial_20_140)"/>
<path d="M18.3158 20.6388C19.0686 20.6388 19.7355 21.2949 20.0797 22.2736C20.0582 20.8324 19.273 19.6815 18.3158 19.6815C17.3585 19.6815 16.5733 20.8431 16.5518 22.2736C16.896 21.3057 17.5628 20.6388 18.3158 20.6388Z" fill="url(#paint5_linear_20_140)"/>
<path d="M30.2547 25.0594C31.2289 25.0594 32.0186 23.87 32.0186 22.4027C32.0186 20.9354 31.2289 19.746 30.2547 19.746C29.2804 19.746 28.4907 20.9354 28.4907 22.4027C28.4907 23.87 29.2804 25.0594 30.2547 25.0594Z" fill="url(#paint6_radial_20_140)"/>
<path d="M35.8796 17.2614C35.8366 18.1434 35.0084 18.6489 33.6532 18.5736C32.4915 18.5091 29.9962 17.6057 28.3936 14.8091C28.1032 14.2928 28.6087 14.0454 28.9098 14.3896C29.9209 15.5405 32.7281 17.1108 34.9976 16.9388C35.9011 16.8743 35.8796 17.2614 35.8796 17.2614Z" fill="url(#paint7_linear_20_140)"/>
<path d="M30.2547 20.7033C29.5017 20.7033 28.8349 21.3594 28.4907 22.3382C28.5122 20.8969 29.2974 19.746 30.2547 19.746C31.2119 19.746 31.9971 20.9076 32.0186 22.3382C31.6744 21.3701 31.0075 20.7033 30.2547 20.7033Z" fill="url(#paint8_linear_20_140)"/>
<path d="M24.2848 31.0504C29.652 31.0504 31.3622 36.3531 29.7273 35.5249C27.5331 34.4063 26.1456 34.3095 24.2848 34.3095C22.4241 34.3095 21.0366 34.417 18.8424 35.5249C17.2075 36.3531 18.9177 31.0504 24.2848 31.0504Z" fill="#643800"/>
<path d="M24.2851 31.9862C27.4473 31.9862 29.448 33.7717 30.3192 35.256C30.3729 34.1804 28.4046 31.0504 24.2851 31.0504C20.1656 31.0504 18.1973 34.1804 18.2511 35.256C19.1223 33.7825 21.1229 31.9862 24.2851 31.9862Z" fill="url(#paint9_linear_20_140)"/>
<path d="M17.1002 33.696C18.1865 36.4173 16.2935 38.8911 14.067 39.2999C11.8405 39.7086 9.39892 38.2243 9.23758 35.4385C8.86114 29.071 16.2289 25.1881 16.2289 25.1881C16.2289 25.1881 15.6481 30.0282 17.1002 33.696Z" fill="url(#paint10_linear_20_140)"/>
<path d="M14.1421 34.1804C13.2602 36.9232 9.16219 37.0953 9.30199 33.9223C9.23749 34.4063 9.21595 34.9118 9.24823 35.4281C9.40957 38.2139 11.8511 39.709 14.0776 39.2895C16.304 38.8808 18.1971 36.4069 17.1107 33.6857C15.6479 30.0179 16.2288 25.167 16.2288 25.167C13.5828 30.9107 14.5724 32.836 14.1421 34.1804Z" fill="url(#paint11_linear_20_140)"/>
<path d="M15.7235 32.1476C16.5732 36.8695 11.249 38.7517 9.32373 36.0735C9.79695 38.4398 12.0234 39.6659 14.0671 39.2895C16.2935 38.8808 18.1866 36.4069 17.1002 33.6857C15.6374 30.0179 16.2182 25.167 16.2182 25.167C16.2182 25.167 15.0243 28.2755 15.7235 32.1476Z" fill="url(#paint12_linear_20_140)"/>
<path d="M15.9383 34.9871C15.0886 38.5366 11.1842 38.4828 9.50635 36.7189C9.86131 37.6869 10.5497 38.4183 11.3671 38.8593C15.7017 40.2038 17.7668 35.7508 17.1645 33.8363C17.143 33.7825 17.1323 33.7287 17.1107 33.6857C17.0785 33.6212 17.057 33.5459 17.0354 33.4706C15.6802 29.8351 16.2395 25.167 16.2395 25.167C14.8412 30.4804 16.9817 30.6418 15.9383 34.9871Z" fill="url(#paint13_linear_20_140)"/>
<path d="M17.1002 33.6964C18.1865 36.4176 16.2935 38.8915 14.067 39.3002C11.8405 39.7089 9.39892 38.2246 9.23758 35.4388C8.86114 29.0714 16.2289 25.1885 16.2289 25.1885C16.2289 25.1885 15.6481 30.0286 17.1002 33.6964Z" fill="url(#paint14_radial_20_140)"/>
<defs>
<radialGradient id="paint0_radial_20_140" cx="0" cy="0" r="1" gradientUnits="userSpaceOnUse" gradientTransform="translate(20.6874 16.8747) scale(22.0585)">
<stop stop-color="#FFDF30"/>
<stop offset="1" stop-color="#FFB82E"/>
</radialGradient>
<radialGradient id="paint1_radial_20_140" cx="0" cy="0" r="1" gradientUnits="userSpaceOnUse" gradientTransform="translate(20.6874 16.8747) scale(17.3544)">
<stop stop-color="#FFE95F"/>
<stop offset="1" stop-color="#FFBB47" stop-opacity="0"/>
</radialGradient>
<radialGradient id="paint2_radial_20_140" cx="0" cy="0" r="1" gradientUnits="userSpaceOnUse" gradientTransform="translate(16.6798 33.2377) rotate(72.6921) scale(16.5184 8.88456)">
<stop stop-color="#EA672A" stop-opacity="0.5"/>
<stop offset="0.3462" stop-color="#DB641B" stop-opacity="0.2846"/>
<stop offset="0.8036" stop-color="#C15E00" stop-opacity="0"/>
</radialGradient>
<linearGradient id="paint3_linear_20_140" x1="16.4663" y1="15.5228" x2="16.5935" y2="17.8308" gradientUnits="userSpaceOnUse">
<stop offset="0.00132565" stop-color="#3C2200"/>
<stop offset="1" stop-color="#7A4400"/>
</linearGradient>
<radialGradient id="paint4_radial_20_140" cx="0" cy="0" r="1" gradientUnits="userSpaceOnUse" gradientTransform="translate(17.7813 22.4696) rotate(73.8539) scale(2.58353 1.6715)">
<stop offset="0.00132565" stop-color="#7A4400"/>
<stop offset="1" stop-color="#643800"/>
</radialGradient>
<linearGradient id="paint5_linear_20_140" x1="18.3155" y1="19.7263" x2="18.3155" y2="22.2078" gradientUnits="userSpaceOnUse">
<stop offset="0.00132565" stop-color="#3C2200"/>
<stop offset="1" stop-color="#512D00"/>
</linearGradient>
<radialGradient id="paint6_radial_20_140" cx="0" cy="0" r="1" gradientUnits="userSpaceOnUse" gradientTransform="translate(29.7214 22.47) rotate(73.8539) scale(2.58353 1.6715)">
<stop offset="0.00132565" stop-color="#7A4400"/>
<stop offset="1" stop-color="#643800"/>
</radialGradient>
<linearGradient id="paint7_linear_20_140" x1="32.1094" y1="15.585" x2="31.9823" y2="17.8931" gradientUnits="userSpaceOnUse">
<stop offset="0.00132565" stop-color="#3C2200"/>
<stop offset="1" stop-color="#7A4400"/>
</linearGradient>
<linearGradient id="paint8_linear_20_140" x1="30.255" y1="19.7916" x2="30.255" y2="22.2731" gradientUnits="userSpaceOnUse">
<stop offset="0.00132565" stop-color="#3C2200"/>
<stop offset="1" stop-color="#512D00"/>
</linearGradient>
<linearGradient id="paint9_linear_20_140" x1="24.2849" y1="29.6675" x2="24.2849" y2="33.8986" gradientUnits="userSpaceOnUse">
<stop offset="0.00132565" stop-color="#3C2200"/>
<stop offset="1" stop-color="#512D00"/>
</linearGradient>
<linearGradient id="paint10_linear_20_140" x1="6.9928" y1="28.8039" x2="19.3219" y2="34.653" gradientUnits="userSpaceOnUse">
<stop offset="0.0723628" stop-color="#17BAFD"/>
<stop offset="0.2085" stop-color="#D0F1FF"/>
<stop offset="0.668" stop-color="#80D9FD"/>
<stop offset="1" stop-color="#0098D5"/>
</linearGradient>
<linearGradient id="paint11_linear_20_140" x1="23.1481" y1="38.3435" x2="6.15343" y2="26.8883" gradientUnits="userSpaceOnUse">
<stop stop-color="#D0F1FF"/>
<stop offset="0.668" stop-color="#80D9FD"/>
<stop offset="1" stop-color="#0098D5"/>
</linearGradient>
<linearGradient id="paint12_linear_20_140" x1="8.63061" y1="26.1239" x2="19.9633" y2="39.5431" gradientUnits="userSpaceOnUse">
<stop offset="0.566" stop-color="#80D9FD"/>
<stop offset="1" stop-color="#0098D5"/>
</linearGradient>
<linearGradient id="paint13_linear_20_140" x1="9.56263" y1="26.6334" x2="18.6161" y2="38.8385" gradientUnits="userSpaceOnUse">
<stop offset="0.566" stop-color="#80D9FD"/>
<stop offset="1" stop-color="#0098D5"/>
</linearGradient>
<radialGradient id="paint14_radial_20_140" cx="0" cy="0" r="1" gradientUnits="userSpaceOnUse" gradientTransform="translate(12.4782 32.3404) rotate(-76.6192) scale(5.74207 3.38086)">
<stop stop-color="white" stop-opacity="0.45"/>
<stop offset="1" stop-color="white" stop-opacity="0"/>
</radialGradient>
</defs>
</svg>
