<svg width="49" height="48" viewBox="0 0 49 48" fill="none" xmlns="http://www.w3.org/2000/svg">
<path d="M24.5411 42.2857C34.64 42.2857 42.8268 34.0988 42.8268 23.9999C42.8268 13.901 34.64 5.71423 24.5411 5.71423C14.4422 5.71423 6.25537 13.901 6.25537 23.9999C6.25537 34.0988 14.4422 42.2857 24.5411 42.2857Z" fill="url(#paint0_radial_20_102)"/>
<path opacity="0.5" d="M24.5411 42.2857C34.64 42.2857 42.8268 34.0988 42.8268 23.9999C42.8268 13.901 34.64 5.71423 24.5411 5.71423C14.4422 5.71423 6.25537 13.901 6.25537 23.9999C6.25537 34.0988 14.4422 42.2857 24.5411 42.2857Z" fill="url(#paint1_radial_20_102)"/>
<path d="M30.381 15.7486C30.5067 15.0286 31.3639 14.7087 32.701 14.9372C33.8439 15.1315 36.2439 16.1944 37.5925 18.7087C37.8439 19.1772 37.3067 19.3144 37.0439 18.9943C36.141 17.9086 33.4896 16.263 31.2267 16.1258C30.3125 16.0687 30.381 15.7486 30.381 15.7486Z" fill="url(#paint2_linear_20_102)"/>
<path d="M32.3468 19.6914C32.3468 19.6914 35.5353 20.0114 36.4268 22.4229C36.4839 22.5714 36.5182 22.7315 36.5067 22.8914C36.5067 23.2115 36.2096 23.5543 35.6382 23.2457C32.1411 21.3143 30.1182 22.2286 28.6096 22.8572C28.0268 23.1086 27.501 22.5143 27.6839 21.9886C27.7296 21.84 27.7754 21.68 27.8553 21.5429C29.1696 19.3486 32.3468 19.6914 32.3468 19.6914Z" fill="url(#paint3_radial_20_102)"/>
<path d="M32.2783 20.4457C32.2783 20.4457 34.8726 20.7086 36.4954 22.6971C36.484 22.6057 36.4612 22.5143 36.4269 22.4229C35.5354 20.0114 32.3469 19.6914 32.3469 19.6914C32.3469 19.6914 29.1584 19.3486 27.8555 21.5429C27.8098 21.6229 27.7641 21.7143 27.7412 21.8057C29.6841 20.1714 32.2783 20.4457 32.2783 20.4457Z" fill="url(#paint4_linear_20_102)"/>
<path d="M36.8836 27.0971C36.7465 27.0399 36.5979 27.0399 36.4607 27.0742C32.5979 28.1713 28.5979 28.7314 24.5407 28.7314C20.495 28.7314 16.4836 28.1713 12.6208 27.0742C12.4836 27.0285 12.335 27.0399 12.1979 27.0971C11.775 27.2685 11.1236 27.8971 11.9921 30.3085C13.3064 33.3828 16.7236 38.7885 24.5522 38.7885C32.3464 38.7885 35.7865 33.3714 37.1008 30.2971C37.9579 27.8971 37.3064 27.2685 36.8836 27.0971Z" fill="url(#paint5_radial_20_102)"/>
<path d="M18.7011 15.7486C18.5754 15.0286 17.7182 14.7087 16.381 14.9372C15.2382 15.1315 12.8382 16.1944 11.4897 18.7087C11.2382 19.1772 11.7753 19.3144 12.0382 18.9943C12.9411 17.9086 15.5925 16.263 17.8554 16.1258C18.7582 16.0687 18.7011 15.7486 18.7011 15.7486Z" fill="url(#paint6_linear_20_102)"/>
<path d="M16.7237 19.6914C16.7237 19.6914 13.5352 20.0114 12.6437 22.4229C12.5866 22.5714 12.5523 22.7315 12.5637 22.8914C12.5637 23.2115 12.8609 23.5543 13.4323 23.2457C16.9294 21.3143 18.9523 22.2286 20.4609 22.8572C21.0437 23.1086 21.5695 22.5143 21.3866 21.9886C21.3409 21.84 21.2951 21.68 21.2152 21.5429C19.9123 19.3486 16.7237 19.6914 16.7237 19.6914Z" fill="url(#paint7_radial_20_102)"/>
<path d="M16.7924 20.4457C16.7924 20.4457 14.1981 20.7086 12.5752 22.6971C12.5866 22.6057 12.6095 22.5143 12.6438 22.4229C13.5352 20.0114 16.7238 19.6914 16.7238 19.6914C16.7238 19.6914 19.9124 19.3486 21.2152 21.5429C21.2609 21.6229 21.3066 21.7143 21.3295 21.8057C19.3866 20.1714 16.7924 20.4457 16.7924 20.4457Z" fill="url(#paint8_linear_20_102)"/>
<path d="M10.6098 30.6287C10.6784 33.0287 8.51837 34.4001 6.67835 34.08C4.84981 33.7601 3.39839 31.9315 4.06125 29.7372C5.58124 24.7315 12.347 23.8286 12.347 23.8286C12.347 23.8286 10.5184 27.3944 10.6098 30.6287Z" fill="url(#paint9_linear_20_102)"/>
<path d="M8.18693 30.1714C6.73553 32.0342 3.5241 30.9942 4.52982 28.6056C4.34696 28.9599 4.18696 29.3371 4.06125 29.7485C3.39839 31.9428 4.84981 33.7828 6.67835 34.0914C8.50697 34.4114 10.667 33.0399 10.6098 30.6399C10.5298 27.4057 12.347 23.84 12.347 23.84C8.67839 27.4971 8.89553 29.2571 8.18693 30.1714Z" fill="url(#paint10_linear_20_102)"/>
<path d="M9.98072 29.0515C9.29504 32.9258 4.65503 32.8686 3.93503 30.2629C3.62646 32.2172 4.98646 33.7943 6.6779 34.08C8.50646 34.4001 10.6665 33.0287 10.6093 30.6287C10.5293 27.3944 12.3465 23.8286 12.3465 23.8286C12.3465 23.8286 10.5408 25.8744 9.98072 29.0515Z" fill="url(#paint11_linear_20_102)"/>
<path d="M9.32965 31.3028C7.66105 33.7942 4.67822 32.6514 3.88965 30.8114C3.88965 31.6571 4.20964 32.4114 4.7125 32.9942C7.66105 35.2571 10.5182 32.4228 10.5982 30.7771C10.5982 30.7314 10.5982 30.6857 10.5982 30.6399C10.5982 30.5828 10.5982 30.5256 10.5982 30.4571C10.5868 27.2685 12.3353 23.84 12.3353 23.84C9.77533 27.5199 11.3753 28.2514 9.32965 31.3028Z" fill="url(#paint12_linear_20_102)"/>
<path opacity="0.75" d="M12.347 23.8286C12.347 23.8286 7.51265 26.2858 7.08977 28.6172C6.66695 30.9486 4.40409 29.8972 4.91837 28.6515C5.83266 26.4686 9.48977 24.4001 12.347 23.8286Z" fill="url(#paint13_linear_20_102)"/>
<path d="M24.5411 37.943C27.7754 37.943 30.2096 36.9487 32.0268 35.5887C30.0267 34.6859 27.5696 34.0916 24.5411 34.0916C21.5125 34.0916 19.0439 34.6859 17.0439 35.5887C18.861 36.9487 21.2954 37.943 24.5411 37.943Z" fill="url(#paint14_radial_20_102)"/>
<path d="M38.4725 30.6287C38.404 33.0287 40.564 34.4001 42.404 34.08C44.2325 33.7601 45.6839 31.9315 45.0211 29.7372C43.5011 24.7315 36.7354 23.8286 36.7354 23.8286C36.7354 23.8286 38.5525 27.3944 38.4725 30.6287Z" fill="url(#paint15_linear_20_102)"/>
<path d="M40.8954 30.1714C42.3468 32.0342 45.5582 30.9942 44.5525 28.6056C44.7354 28.9599 44.8954 29.3371 45.0211 29.7485C45.6839 31.9428 44.2325 33.7828 42.404 34.0914C40.5754 34.4114 38.4154 33.0399 38.4725 30.6399C38.5525 27.4057 36.7354 23.84 36.7354 23.84C40.3925 27.4971 40.1754 29.2571 40.8954 30.1714Z" fill="url(#paint16_linear_20_102)"/>
<path d="M39.0894 29.0515C39.7751 32.9258 44.415 32.8686 45.135 30.2629C45.4436 32.2172 44.0836 33.7943 42.3922 34.08C40.5636 34.4001 38.4036 33.0287 38.4608 30.6287C38.5408 27.3944 36.7236 23.8286 36.7236 23.8286C36.7236 23.8286 38.5293 25.8744 39.0894 29.0515Z" fill="url(#paint17_linear_20_102)"/>
<path d="M39.7411 31.3028C41.4097 33.7942 44.3926 32.6514 45.1811 30.8114C45.1811 31.6571 44.8611 32.4114 44.3582 32.9942C41.4097 35.2571 38.5525 32.4228 38.4725 30.7771C38.4725 30.7314 38.4725 30.6857 38.4725 30.6399C38.4725 30.5828 38.4725 30.5256 38.4725 30.4571C38.4839 27.2685 36.7354 23.84 36.7354 23.84C39.3068 27.5199 37.7068 28.2514 39.7411 31.3028Z" fill="url(#paint18_linear_20_102)"/>
<path opacity="0.75" d="M36.7354 23.8286C36.7354 23.8286 41.5697 26.2858 41.9926 28.6172C42.4154 30.9372 44.6782 29.8972 44.1639 28.6515C43.2497 26.4686 39.5926 24.4001 36.7354 23.8286Z" fill="url(#paint19_linear_20_102)"/>
<path d="M12.5069 27.0514C12.484 27.0399 12.4498 27.0399 12.4269 27.0399C12.1641 27.0628 10.9069 27.3256 11.9812 30.3085C12.5069 31.5542 13.3869 33.1656 14.7583 34.6628C13.4784 33.1428 15.0555 32.2971 17.8783 32.64C20.7012 32.9828 24.5412 32.9828 24.5412 32.9828V28.7314C20.4498 28.7428 16.4041 28.1713 12.5069 27.0514Z" fill="url(#paint20_linear_20_102)"/>
<path d="M36.5636 27.0514C36.5864 27.0399 36.6207 27.0399 36.6436 27.0399C36.9065 27.0628 38.1636 27.3256 37.0893 30.3085C36.5636 31.5542 35.6836 33.1656 34.3122 34.6628C35.5922 33.1428 34.015 32.2971 31.1922 32.64C28.3693 32.9828 24.5293 32.9828 24.5293 32.9828V28.7314C28.6208 28.7428 32.6664 28.1713 36.5636 27.0514Z" fill="url(#paint21_linear_20_102)"/>
<path d="M35.398 31.0172C35.9238 30.8915 36.3238 30.4457 36.3695 29.8971L36.5638 27.9429C32.6666 29.04 28.6323 29.6 24.5409 29.6C20.4609 29.6 16.4152 29.04 12.5181 27.9429L12.7123 29.8971C12.7695 30.4343 13.158 30.8915 13.6837 31.0172C17.2266 31.8629 20.8723 32.2857 24.5409 32.2857C28.2095 32.2857 31.8552 31.8629 35.398 31.0172Z" fill="url(#paint22_radial_20_102)"/>
<defs>
<radialGradient id="paint0_radial_20_102" cx="0" cy="0" r="1" gradientUnits="userSpaceOnUse" gradientTransform="translate(20.9406 16.592) scale(22.0594 22.0594)">
<stop stop-color="#FFE030"/>
<stop offset="1" stop-color="#FFB92E"/>
</radialGradient>
<radialGradient id="paint1_radial_20_102" cx="0" cy="0" r="1" gradientUnits="userSpaceOnUse" gradientTransform="translate(20.9406 16.592) scale(17.3551)">
<stop stop-color="#FFEA5F"/>
<stop offset="1" stop-color="#FFBC47" stop-opacity="0"/>
</radialGradient>
<linearGradient id="paint2_linear_20_102" x1="33.9653" y1="17.6104" x2="34.2907" y2="15.7114" gradientUnits="userSpaceOnUse">
<stop offset="0.00132565" stop-color="#3C2200"/>
<stop offset="1" stop-color="#7A4400"/>
</linearGradient>
<radialGradient id="paint3_radial_20_102" cx="0" cy="0" r="1" gradientUnits="userSpaceOnUse" gradientTransform="translate(32.1686 21.4954) rotate(5.868) scale(3.44648 1.66282)">
<stop offset="0.00132565" stop-color="#7A4400"/>
<stop offset="1" stop-color="#643800"/>
</radialGradient>
<linearGradient id="paint4_linear_20_102" x1="32.4612" y1="18.6858" x2="32.2462" y2="20.9022" gradientUnits="userSpaceOnUse">
<stop offset="0.00132565" stop-color="#3C2200"/>
<stop offset="1" stop-color="#512D00"/>
</linearGradient>
<radialGradient id="paint5_radial_20_102" cx="0" cy="0" r="1" gradientUnits="userSpaceOnUse" gradientTransform="translate(24.5381 32.9275) scale(10.0733)">
<stop offset="0.00132565" stop-color="#7A4400"/>
<stop offset="1" stop-color="#643800"/>
</radialGradient>
<linearGradient id="paint6_linear_20_102" x1="15.0914" y1="17.5957" x2="14.766" y2="15.6967" gradientUnits="userSpaceOnUse">
<stop offset="0.00132565" stop-color="#3C2200"/>
<stop offset="1" stop-color="#7A4400"/>
</linearGradient>
<radialGradient id="paint7_radial_20_102" cx="0" cy="0" r="1" gradientUnits="userSpaceOnUse" gradientTransform="translate(16.8698 21.4961) rotate(174.132) scale(3.44648 1.66282)">
<stop offset="0.00132565" stop-color="#7A4400"/>
<stop offset="1" stop-color="#643800"/>
</radialGradient>
<linearGradient id="paint8_linear_20_102" x1="16.5952" y1="18.6838" x2="16.8102" y2="20.9001" gradientUnits="userSpaceOnUse">
<stop offset="0.00132565" stop-color="#3C2200"/>
<stop offset="1" stop-color="#512D00"/>
</linearGradient>
<linearGradient id="paint9_linear_20_102" x1="4.20326" y1="23.9912" x2="12.0318" y2="31.9911" gradientUnits="userSpaceOnUse">
<stop offset="0.0723628" stop-color="#17BBFE"/>
<stop offset="0.2085" stop-color="#D1F2FF"/>
<stop offset="0.668" stop-color="#80DAFE"/>
<stop offset="1" stop-color="#0099D6"/>
</linearGradient>
<linearGradient id="paint10_linear_20_102" x1="13.9298" y1="35.9163" x2="4.10118" y2="22.2782" gradientUnits="userSpaceOnUse">
<stop stop-color="#D1F2FF"/>
<stop offset="0.668" stop-color="#80DAFE"/>
<stop offset="1" stop-color="#0099D6"/>
</linearGradient>
<linearGradient id="paint11_linear_20_102" x1="6.22393" y1="22.3929" x2="11.1382" y2="35.9357" gradientUnits="userSpaceOnUse">
<stop offset="0.566" stop-color="#80DAFE"/>
<stop offset="1" stop-color="#0099D6"/>
</linearGradient>
<linearGradient id="paint12_linear_20_102" x1="6.79711" y1="23.0494" x2="10.3019" y2="35.0113" gradientUnits="userSpaceOnUse">
<stop offset="0.566" stop-color="#80DAFE"/>
<stop offset="1" stop-color="#0099D6"/>
</linearGradient>
<linearGradient id="paint13_linear_20_102" x1="7.84433" y1="31.998" x2="9.44435" y2="19.998" gradientUnits="userSpaceOnUse">
<stop stop-color="white"/>
<stop offset="1" stop-color="#80DAFE"/>
</linearGradient>
<radialGradient id="paint14_radial_20_102" cx="0" cy="0" r="1" gradientUnits="userSpaceOnUse" gradientTransform="translate(24.6891 36.4692) scale(8.34852 2.52377)">
<stop offset="0.2479" stop-color="#FF0000"/>
<stop offset="1" stop-color="#C20000"/>
</radialGradient>
<linearGradient id="paint15_linear_20_102" x1="44.8737" y1="23.9912" x2="37.0451" y2="31.9911" gradientUnits="userSpaceOnUse">
<stop offset="0.0723628" stop-color="#17BBFE"/>
<stop offset="0.2085" stop-color="#D1F2FF"/>
<stop offset="0.668" stop-color="#80DAFE"/>
<stop offset="1" stop-color="#0099D6"/>
</linearGradient>
<linearGradient id="paint16_linear_20_102" x1="35.1472" y1="35.9163" x2="44.9758" y2="22.2782" gradientUnits="userSpaceOnUse">
<stop stop-color="#D1F2FF"/>
<stop offset="0.668" stop-color="#80DAFE"/>
<stop offset="1" stop-color="#0099D6"/>
</linearGradient>
<linearGradient id="paint17_linear_20_102" x1="42.8522" y1="22.3929" x2="37.9379" y2="35.9357" gradientUnits="userSpaceOnUse">
<stop offset="0.566" stop-color="#80DAFE"/>
<stop offset="1" stop-color="#0099D6"/>
</linearGradient>
<linearGradient id="paint18_linear_20_102" x1="42.2797" y1="23.0494" x2="38.7749" y2="35.0113" gradientUnits="userSpaceOnUse">
<stop offset="0.566" stop-color="#80DAFE"/>
<stop offset="1" stop-color="#0099D6"/>
</linearGradient>
<linearGradient id="paint19_linear_20_102" x1="41.2325" y1="31.998" x2="39.6326" y2="19.998" gradientUnits="userSpaceOnUse">
<stop stop-color="white"/>
<stop offset="1" stop-color="#80DAFE"/>
</linearGradient>
<linearGradient id="paint20_linear_20_102" x1="11.5582" y1="30.8568" x2="24.5385" y2="30.8568" gradientUnits="userSpaceOnUse">
<stop offset="0.00132565" stop-color="#3C2200"/>
<stop offset="1" stop-color="#512D00"/>
</linearGradient>
<linearGradient id="paint21_linear_20_102" x1="37.5152" y1="30.8568" x2="24.5349" y2="30.8568" gradientUnits="userSpaceOnUse">
<stop offset="0.00132565" stop-color="#3C2200"/>
<stop offset="1" stop-color="#512D00"/>
</linearGradient>
<radialGradient id="paint22_radial_20_102" cx="0" cy="0" r="1" gradientUnits="userSpaceOnUse" gradientTransform="translate(24.5382 30.1175) scale(22.0909 22.0909)">
<stop offset="0.00132565" stop-color="white"/>
<stop offset="1" stop-color="#A9BCBE"/>
</radialGradient>
</defs>
</svg>
