<svg width="48" height="48" viewBox="0 0 48 48" fill="none" xmlns="http://www.w3.org/2000/svg">
<path d="M32.263 7.42883C28.8344 7.42883 25.8058 9.15454 23.9999 11.7831C22.1944 9.15454 19.1658 7.42883 15.7372 7.42883C10.2058 7.42883 5.71436 11.9202 5.71436 17.4517C5.71436 29.669 23.9999 40.6517 23.9999 40.6517C23.9999 40.6517 42.2858 29.669 42.2858 17.4517C42.2858 11.9202 37.7944 7.42883 32.263 7.42883Z" fill="url(#paint0_radial_49_2)"/>
<path opacity="0.5" d="M36.4111 8.32031C41.897 17.0631 36.8456 28.5374 30.777 31.7947C24.0798 35.3947 19.497 33.7031 10.0112 28.3203C15.4169 35.486 23.9998 40.6404 23.9998 40.6404C23.9998 40.6404 42.2856 29.6574 42.2856 17.4403C42.2856 13.3946 39.8741 9.89745 36.4111 8.32031Z" fill="url(#paint1_radial_49_2)"/>
<path opacity="0.5" d="M32.263 7.42883C28.8344 7.42883 25.8058 9.15454 23.9999 11.7831C22.1944 9.15454 19.1658 7.42883 15.7372 7.42883C10.2058 7.42883 5.71436 11.9202 5.71436 17.4517C5.71436 29.669 23.9999 40.6517 23.9999 40.6517C23.9999 40.6517 42.2858 29.669 42.2858 17.4517C42.2858 11.9202 37.7944 7.42883 32.263 7.42883Z" fill="url(#paint2_radial_49_2)"/>
<path opacity="0.5" d="M32.263 7.42883C28.8344 7.42883 25.8058 9.15454 23.9999 11.7831C22.1944 9.15454 19.1658 7.42883 15.7372 7.42883C10.2058 7.42883 5.71436 11.9202 5.71436 17.4517C5.71436 29.669 23.9999 40.6517 23.9999 40.6517C23.9999 40.6517 42.2858 29.669 42.2858 17.4517C42.2858 11.9202 37.7944 7.42883 32.263 7.42883Z" fill="url(#paint3_radial_49_2)"/>
<path opacity="0.24" d="M21.4972 11.4977C22.5029 13.8634 20.2743 17.0748 16.5143 18.6635C12.7543 20.2519 8.90287 19.6348 7.89714 17.2805C6.89142 14.9262 9.12 11.7034 12.88 10.1148C16.64 8.52624 20.4913 9.13194 21.4972 11.4977Z" fill="url(#paint4_radial_49_2)"/>
<path opacity="0.24" d="M33.7483 9.57794C35.1769 11.1551 34.2969 14.2751 31.7942 16.538C29.2912 18.8007 26.1026 19.3607 24.6742 17.7837C23.2455 16.2065 24.1255 13.0865 26.6283 10.8237C29.1312 8.5608 32.3199 8.0008 33.7483 9.57794Z" fill="url(#paint5_radial_49_2)"/>
<path opacity="0.32" d="M32.4458 10.0917C37.4744 11.806 42.2744 19.2345 34.1602 28.4917C29.303 34.0345 24.0002 36.8345 17.2573 35.7373C20.903 38.7773 24.0116 40.6517 24.0116 40.6517C24.0116 40.6517 42.2975 29.669 42.2975 17.4517C42.2858 11.9202 37.7944 7.42883 32.263 7.42883C28.8344 7.42883 25.8058 9.15454 24.0002 11.7831C24.0002 11.7831 28.7658 8.83454 32.4458 10.0917Z" fill="url(#paint6_linear_49_2)"/>
<defs>
<radialGradient id="paint0_radial_49_2" cx="0" cy="0" r="1" gradientUnits="userSpaceOnUse" gradientTransform="translate(18.7695 16.6955) rotate(-29.408) scale(28.6128 22.6972)">
<stop offset="0.2479" stop-color="#FF0000"/>
<stop offset="0.8639" stop-color="#C20000"/>
</radialGradient>
<radialGradient id="paint1_radial_49_2" cx="0" cy="0" r="1" gradientUnits="userSpaceOnUse" gradientTransform="translate(19.4769 14.9403) rotate(-29.408) scale(24.6347 19.5415)">
<stop offset="0.2479" stop-color="#FF0000"/>
<stop offset="1" stop-color="#C20000"/>
</radialGradient>
<radialGradient id="paint2_radial_49_2" cx="0" cy="0" r="1" gradientUnits="userSpaceOnUse" gradientTransform="translate(18.7695 16.6955) rotate(-29.408) scale(28.6128 22.6972)">
<stop stop-color="white" stop-opacity="0.25"/>
<stop offset="1" stop-color="white" stop-opacity="0"/>
</radialGradient>
<radialGradient id="paint3_radial_49_2" cx="0" cy="0" r="1" gradientUnits="userSpaceOnUse" gradientTransform="translate(29.0554 26.4089) rotate(-26.296) scale(20.8862 10.3208)">
<stop stop-color="#BD2719" stop-opacity="0.25"/>
<stop offset="1" stop-color="#BD2719" stop-opacity="0"/>
</radialGradient>
<radialGradient id="paint4_radial_49_2" cx="0" cy="0" r="1" gradientUnits="userSpaceOnUse" gradientTransform="translate(14.6949 14.3891) rotate(-21.6908) scale(7.42505 4.61232)">
<stop stop-color="white"/>
<stop offset="1" stop-color="white" stop-opacity="0"/>
</radialGradient>
<radialGradient id="paint5_radial_49_2" cx="0" cy="0" r="1" gradientUnits="userSpaceOnUse" gradientTransform="translate(29.2007 13.6926) rotate(-40.7634) scale(6.14752 3.819)">
<stop stop-color="white"/>
<stop offset="1" stop-color="white" stop-opacity="0"/>
</radialGradient>
<linearGradient id="paint6_linear_49_2" x1="27.7736" y1="53.6997" x2="31.3167" y2="5.92828" gradientUnits="userSpaceOnUse">
<stop stop-color="#860805"/>
<stop offset="1" stop-color="#BD2719" stop-opacity="0"/>
</linearGradient>
</defs>
</svg>
