<svg width="48" height="48" viewBox="0 0 48 48" fill="none" xmlns="http://www.w3.org/2000/svg">
<path d="M23.8852 4.79993C22.3965 4.79993 21.8329 5.98862 21.948 8.29589C22.0237 9.81539 22.5368 14.0514 20.3892 16.1989C18.3874 18.2005 17.8043 18.024 15.5252 20.6059C13.2459 23.1879 11.3452 22.6581 8.68743 22.4283C5.34571 22.1422 6.48393 40.6818 8.83888 40.3621C10.5098 40.1351 14.3112 39.6781 14.9168 39.6781C15.5252 39.6781 19.6939 42.9077 23.3526 42.9442C29.279 43.0059 32.548 41.9574 32.548 41.9574L34.2833 38.0185L34.8637 26.0055L32.0909 20.2247C32.0909 20.2247 28.3679 20.8331 27.3026 19.1621C26.2401 17.4913 28.138 15.4392 28.138 10.6508C28.138 5.86245 24.6449 4.79993 23.8852 4.79993Z" fill="url(#paint0_linear_49_11)"/>
<path d="M32.7551 41.9206L32.5308 41.099C31.8636 41.029 31.003 41.3318 29.8311 41.3234C24.227 41.2813 18.8695 39.6722 16.5706 37.8526C15.0652 36.6612 14.4063 35.0743 13.341 35.5314C12.029 36.095 8.30594 36.9696 6.93506 35.237C7.31911 38.203 8.00318 40.4795 8.83861 40.3646C10.5095 40.1374 14.311 39.6806 14.9166 39.6806C15.525 39.6806 19.5759 42.826 23.3523 42.9465C28.236 43.1063 32.5729 42.2653 32.5729 42.2653L32.7551 41.9206Z" fill="url(#paint1_linear_49_11)"/>
<path d="M27.3051 19.1621C26.2425 17.4913 28.1406 15.4392 28.1406 10.6508C28.1406 5.86245 24.6446 4.79993 23.8848 4.79993C23.6859 4.79993 23.5063 4.82234 23.3467 4.86441C26.4473 5.05785 28.3143 8.96873 27.2434 13.0001C26.3771 16.2718 25.9454 18.8932 27.3613 20.4322C28.2779 21.4274 30.0974 21.2592 32.0907 20.2247C32.0907 20.2247 28.3677 20.8331 27.3051 19.1621Z" fill="url(#paint2_linear_49_11)"/>
<path d="M27.5126 20.8672C25.6875 21.4755 21.0843 22.9052 17.5939 26.0677C8.75451 34.0857 23.8484 35.0892 26.9633 41.9438C27.5603 43.2558 31.0422 35.0697 31.0422 35.0697L32.1693 33.1746L28.9144 24.5088L27.5126 20.8672Z" fill="url(#paint3_linear_49_11)"/>
<path d="M27.7821 21.5621C25.957 22.1705 18.5083 26.942 18.5083 29.2997C18.5083 36.101 23.6667 32.7452 26.456 40.7687C26.8431 41.8789 28.2055 42.8153 28.2055 42.8153C29.3353 41.893 31.0454 35.0748 31.0454 35.0748L32.1725 33.1797L28.9175 24.5141L27.7821 21.5621Z" fill="url(#paint4_linear_49_11)"/>
<path d="M31.9899 42.4064L35.4802 38.4171L36.2484 21.7475L27.5128 20.8672C25.5083 21.9465 25.2756 23.424 26.0214 25.7929C26.3354 26.7909 25.0596 27.0768 24.9784 29.9813C24.9224 31.9943 26.2399 32.0055 26.2399 32.6027C26.2399 33.1996 25.5839 33.1465 25.3652 34.8818C25.0541 37.3628 27.1314 37.4105 27.1314 37.9404C27.1314 38.4702 25.9764 38.787 26.0493 40.8083C26.1391 43.3737 21.3759 42.8549 18.1576 40.5196C16.8342 39.5609 15.6821 39.4627 14.7793 39.6786C14.8354 39.6757 14.883 39.6731 14.9195 39.6731C15.5278 39.6731 19.6097 42.939 23.3551 42.939C27.7314 42.9447 30.7592 42.6896 31.9899 42.4064Z" fill="url(#paint5_linear_49_11)"/>
<path d="M32.7917 21.9657C30.0946 21.9657 28.6116 24.6009 29.6377 26.6279C30.6637 28.6548 27.7369 31.3349 28.0425 32.6526C28.3453 33.973 28.8779 37.312 29.2957 37.8644C29.7134 38.4165 28.6116 39.6697 28.6116 39.6697L32.0318 40.0875L35.2222 38.6802L35.1072 29.0304L35.4493 22.989L32.7917 21.9657Z" fill="url(#paint6_linear_49_11)"/>
<path d="M23.8852 4.79993C22.3966 4.79993 21.8331 5.98862 21.9479 8.29589C22.0236 9.81539 22.5367 14.0514 20.3892 16.1989C18.3876 18.2005 17.8044 18.0212 15.5252 20.6059C14.045 22.2852 12.7245 22.6469 11.2527 22.6329C10.4593 22.6245 9.62103 22.5095 8.6875 22.4283C8.6875 23.0057 8.85573 22.9917 11.0592 23.6002C11.3115 23.6702 11.5499 23.7179 11.7825 23.746C11.8947 24.0964 11.9564 24.4496 11.9423 24.8C11.861 26.7204 12.2844 29.0837 12.6068 26.6251C12.7329 25.6718 13.1226 24.6009 13.6805 23.5216C14.516 23.1879 15.1916 22.5629 15.7916 21.834C16.9101 20.4741 17.8802 19.2688 20.6919 17.4465C23.5038 15.6214 23.1422 10.6088 22.9152 8.93507C22.6882 7.26137 22.8395 4.79993 23.8852 4.79993Z" fill="url(#paint7_radial_49_11)"/>
<path d="M34.8354 20.1492C31.645 20.0287 25.9118 19.8464 25.7858 23.1881C25.6932 25.6103 27.4118 26.4066 30.0694 26.5074C32.7271 26.6084 34.056 26.6589 35.1579 26.7008C36.2596 26.743 39.7218 26.7206 39.7554 23.7965C39.7975 20.1408 34.8354 20.1492 34.8354 20.1492Z" fill="url(#paint8_linear_49_11)"/>
<path d="M29.5905 32.229C28.7354 32.2037 26.1981 32.8457 25.9599 34.4578C25.7722 35.725 26.4196 37.365 28.6289 37.7518C31.4267 38.2425 36.0918 38.4976 37.8326 37.8471C38.612 37.5556 39.2906 36.7426 39.3242 35.5063C39.3606 34.2699 38.4438 32.6075 36.4477 32.5486C34.4516 32.4898 33.4143 32.5205 32.279 32.3888C30.9165 32.2233 30.2746 32.2487 29.5905 32.229Z" fill="url(#paint9_linear_49_11)"/>
<path d="M28.7016 37.8645C27.7314 37.8645 26.5371 38.7196 26.5371 40.1438C26.5371 41.568 26.9072 42.622 28.9874 43.0231C31.0676 43.4211 34.4009 43.0791 35.6541 42.6809C36.6297 42.3697 36.9942 41.4558 36.9942 39.9447C36.9942 38.4336 36.055 38.1701 35.0288 38.1701C34.0029 38.1701 32.7581 38.358 32.0459 38.3187C30.0584 38.2151 29.6687 37.8645 28.7016 37.8645Z" fill="url(#paint10_linear_49_11)"/>
<path d="M34.5637 20.8251C31.7799 20.7186 26.7729 20.5588 26.672 23.1996C26.5991 25.1143 28.1017 25.7479 30.4229 25.8377C32.7443 25.9275 38.8503 26.0368 38.8698 23.7239C38.8951 20.8334 34.5637 20.8251 34.5637 20.8251Z" fill="url(#paint11_linear_49_11)"/>
<path d="M29.848 32.9079C29.105 32.8855 27.0192 33.065 26.8202 34.6041C26.6857 35.6469 27.2266 36.9842 29.1498 37.3066C31.5889 37.713 35.6483 37.929 37.1651 37.3962C37.8407 37.158 38.4323 36.4937 38.4602 35.4816C38.4883 34.4695 37.5575 33.2275 35.8222 33.1799C34.0867 33.1294 33.1644 33.2892 32.1721 33.1799C30.9834 33.0453 30.4423 32.9276 29.848 32.9079Z" fill="url(#paint12_linear_49_11)"/>
<path d="M29.1134 38.3828C28.2752 38.3828 27.2407 39.0725 27.2407 40.2192C27.2407 41.3657 27.5602 42.2151 29.3602 42.5376C31.16 42.8599 34.0448 42.5824 35.1269 42.2628C35.9709 42.0133 36.2848 41.2761 36.2848 40.0592C36.2848 38.8427 35.4718 38.6295 34.5831 38.6295C33.6942 38.6295 32.6178 38.781 32.0037 38.75C30.288 38.666 29.9517 38.3828 29.1134 38.3828Z" fill="url(#paint13_linear_49_11)"/>
<path d="M10.9078 40.0955C8.66505 39.1312 6.56806 25.9268 10.7032 22.6102C10.0724 22.5709 9.40799 22.4868 8.68743 22.4251C5.34571 22.1392 6.48393 40.6786 8.83888 40.3591C9.3715 40.2889 10.1172 40.1936 10.9078 40.0955Z" fill="url(#paint14_linear_49_11)"/>
<path d="M28.6031 23.1997C28.6732 21.3803 30.1226 20.5083 31.956 20.1046C29.0293 20.1719 25.8782 20.7186 25.7829 23.1856C25.6902 25.6078 27.4088 26.4041 30.0666 26.5051C30.3582 26.5163 30.6357 26.5273 30.8963 26.5358C29.4049 26.1012 28.5302 25.12 28.6031 23.1997Z" fill="url(#paint15_linear_49_11)"/>
<path d="M28.8531 20.4354C27.1512 20.8082 25.8449 21.6128 25.7832 23.1884C25.7075 25.2041 26.8821 26.0899 28.8081 26.3927C24.9057 24.8339 26.3047 20.9932 28.8531 20.4354Z" fill="url(#paint16_linear_49_11)"/>
<path opacity="0.65" d="M24.3197 39.5804C23.8683 40.6149 21.7265 40.6795 19.5313 39.7262C17.339 38.773 15.926 37.1582 16.3746 36.1237C16.826 35.0892 18.9677 35.0247 21.1629 35.9779C23.3553 36.934 24.7682 38.5459 24.3197 39.5804Z" fill="url(#paint17_radial_49_11)"/>
<path opacity="0.75" d="M37.2242 23.6873C37.2018 25.0862 35.3318 25.7479 33.288 25.8713C31.6144 25.9721 29.7584 24.7892 29.8061 23.4238C29.8539 22.0585 30.0978 20.8475 33.5712 20.968C35.6233 21.0409 37.2466 22.3221 37.2242 23.6873Z" fill="url(#paint18_radial_49_11)"/>
<path opacity="0.75" d="M37.5969 35.9778C37.5857 37.9122 35.4551 37.542 33.4113 37.6766C30.8181 37.8476 29.0995 37.0403 29.0967 35.675C29.0967 34.3097 30.0809 33.3116 33.56 33.3059C35.6092 33.3033 37.611 33.491 37.5969 35.9778Z" fill="url(#paint19_radial_49_11)"/>
<path opacity="0.75" d="M35.7214 40.8581C35.7101 42.5093 33.7757 42.7337 31.9451 42.7337C30.1143 42.7337 28.1239 41.7637 28.1211 40.6002C28.1211 39.4339 29.0014 38.5874 32.1104 38.5817C33.944 38.5762 35.7355 38.7387 35.7214 40.8581Z" fill="url(#paint20_radial_49_11)"/>
<path d="M28.3372 34.8478C28.6287 32.6443 30.3192 32.7732 32.2565 32.5433C30.0248 32.378 29.0885 32.3527 29.0885 32.3527C28.881 32.333 28.6483 32.3302 28.4044 32.3556C27.6783 32.5152 26.8568 32.8461 26.3692 33.4628C26.2037 33.6983 26.0691 33.9758 25.9795 34.3067C25.971 34.3543 25.9626 34.402 25.9542 34.4525C25.7973 35.7254 26.414 37.3597 28.623 37.7467C28.9427 37.8027 29.2847 37.856 29.6463 37.9037C29.8202 37.9261 30.0081 37.9485 30.2099 37.9737C30.2632 37.9792 30.3192 37.9878 30.3726 37.9933C29.1585 37.4214 28.124 36.4683 28.3372 34.8478Z" fill="url(#paint21_linear_49_11)"/>
<path d="M28.8778 32.3388C28.7266 32.3333 28.5696 32.339 28.4041 32.3557C27.6723 32.5184 26.8453 32.8519 26.3575 33.4798C26.1978 33.7127 26.0688 33.9874 25.9818 34.307C25.9735 34.3547 25.9678 34.4023 25.9566 34.4528C25.7324 35.7059 26.3548 37.1833 28.2835 37.6711C24.995 35.8601 26.3996 32.3417 28.8778 32.3388Z" fill="url(#paint22_linear_49_11)"/>
<path d="M30.7956 38.201C29.8228 38.0579 29.4219 37.8645 28.7016 37.8645C27.7314 37.8645 26.5371 38.7196 26.5371 40.1438C26.5371 40.6624 26.5876 41.1306 26.7474 41.5344C26.9101 41.8707 27.1483 42.1847 27.4763 42.4483C27.8352 42.6977 28.3231 42.894 28.9874 43.0202C29.4331 43.1043 29.935 43.1575 30.4621 43.1799C29.4443 42.5884 27.7231 42.2716 28.0847 40.2953C28.4799 38.1141 29.7835 38.4085 30.7956 38.201Z" fill="url(#paint23_linear_49_11)"/>
<path d="M28.6565 37.8645C27.6949 37.8897 26.5342 38.7392 26.5342 40.1438C26.5342 41.4503 26.8455 42.4426 28.4995 42.9081C25.9203 41.2483 26.7473 38.4533 28.6565 37.8645Z" fill="url(#paint24_linear_49_11)"/>
<path d="M39.753 23.7968C39.7559 23.4688 39.7194 23.1717 39.6494 22.8997C39.9045 24.0407 38.8896 25.1762 36.1927 25.7283C34.4041 26.0928 29.6578 26.5499 26.3721 25.2462C27.0814 26.1042 28.3849 26.4462 30.067 26.5106C32.7248 26.6115 34.0535 26.662 35.1554 26.704C36.257 26.7433 39.7194 26.7237 39.753 23.7968Z" fill="url(#paint25_linear_49_11)"/>
<path d="M39.3264 35.425C39.3236 34.2 38.404 32.6019 36.45 32.5459C34.4568 32.4871 33.4166 32.5178 32.2813 32.3861C30.916 32.2263 30.274 32.2487 29.5899 32.2291C29.074 32.2151 27.7984 32.3692 26.9321 32.9075C27.9078 33.2467 29.4944 33.7543 31.7289 33.6112C37.0836 33.2665 38.6059 33.9141 39.3264 35.425Z" fill="url(#paint26_linear_49_11)"/>
<path d="M28.4436 26.7004C27.3053 26.678 25.4943 27.3481 25.4466 29.7143C25.399 32.0804 27.4679 32.6439 28.3791 32.6608C29.2902 32.6775 32.4777 32.8962 36.4111 32.9748C40.3444 33.0532 40.8687 30.9422 40.8911 29.8377C40.9135 28.7332 40.2127 26.7314 37.8464 26.6837C31.0116 26.5463 28.4436 26.7004 28.4436 26.7004Z" fill="url(#paint27_linear_49_11)"/>
<path d="M29.0549 27.3851C28.0652 27.3655 26.4926 27.8786 26.4561 29.7037C26.4197 31.5287 28.2195 31.9689 29.0129 31.983C29.8062 31.9997 32.2817 32.3837 35.9935 32.2407C39.411 32.109 39.8652 30.682 39.8819 29.8297C39.8988 28.9774 39.7811 27.4327 37.726 27.3908C31.7827 27.2758 29.0549 27.3851 29.0549 27.3851Z" fill="url(#paint28_linear_49_11)"/>
<path d="M27.891 29.4841C28.006 27.0564 29.6993 27.048 31.614 26.6302C29.3768 26.6443 28.4405 26.7003 28.4405 26.7003C27.3024 26.6779 25.4913 27.3479 25.4437 29.714C25.3959 32.0802 27.4648 32.6438 28.3761 32.6605C28.7041 32.6662 29.3292 32.6998 30.1786 32.7419C28.92 32.2203 27.8069 31.2699 27.891 29.4841Z" fill="url(#paint29_linear_49_11)"/>
<path opacity="0.75" d="M38.8893 29.737C38.9679 31.6714 36.8203 32.0359 34.7738 32.134C32.7272 32.2321 30.4507 31.1977 30.3864 29.8323C30.3218 28.467 31.2582 27.427 34.7345 27.2588C36.7782 27.1578 38.7883 27.2531 38.8893 29.737Z" fill="url(#paint30_radial_49_11)"/>
<path d="M28.2306 26.7036C27.0923 26.7651 25.4916 27.4913 25.4466 29.7116C25.4018 31.9601 27.269 32.5797 28.2361 32.6526C24.4907 31.1415 25.7186 26.9249 28.2306 26.7036Z" fill="url(#paint31_linear_49_11)"/>
<path d="M40.8852 29.5999C40.3916 33.0987 31.1374 32.4594 26.1387 31.7081C26.8144 32.4313 27.8181 32.65 28.3787 32.6612C29.2898 32.6809 32.4773 32.8967 36.4107 32.9751C40.3412 33.0537 40.8683 30.9428 40.8907 29.8383C40.8935 29.7625 40.8907 29.6811 40.8852 29.5999Z" fill="url(#paint32_linear_49_11)"/>
<path d="M36.2512 37.3906C34.4599 37.4692 29.7165 38.0578 26.2598 36.2075C26.6438 36.9254 27.3924 37.5335 28.6287 37.7495C31.4265 38.24 36.0916 38.4953 37.8326 37.8448C38.6118 37.5533 39.2903 36.7403 39.3239 35.5038C39.2118 36.5776 38.1885 37.3065 36.2512 37.3906Z" fill="url(#paint33_linear_49_11)"/>
<path d="M36.8539 41.2786C35.6791 42.173 33.6494 42.6999 30.7225 42.2037C28.9143 41.8981 27.6752 41.7945 26.8594 41.7721C27.1845 42.3607 27.8155 42.7952 28.9872 43.0195C31.0674 43.4176 34.4007 43.0757 35.6539 42.6775C36.296 42.4729 36.6716 42.0046 36.8539 41.2786Z" fill="url(#paint34_linear_49_11)"/>
<path d="M26.9185 38.8624C29.0884 38.0718 30.1508 39.2437 32.4751 39.2437C34.8859 39.2437 36.0354 38.2709 36.8905 39.1961C36.6212 38.341 35.8504 38.17 35.0262 38.17C34.0001 38.17 32.7553 38.3579 32.0433 38.3186C30.0584 38.2148 29.6687 37.8615 28.6987 37.8615C28.0735 37.8644 27.3503 38.2233 26.9185 38.8624Z" fill="url(#paint35_linear_49_11)"/>
<path d="M8.83888 40.3625C10.5098 40.1353 14.3085 39.6784 14.9169 39.6784C9.40521 35.7395 11.8554 27.3626 13.8908 23.1237C14.1767 22.5294 14.3534 22.0416 14.4459 21.6266C12.6124 23.0258 10.9163 22.622 8.68473 22.4284C5.34576 22.1426 6.48675 40.6819 8.83888 40.3625Z" fill="url(#paint36_linear_49_11)"/>
<path d="M12.3149 36.5554C11.7458 35.7956 12.2392 37.4301 12.6962 38.6075C13.0831 39.6112 10.1114 39.0167 7.83496 39.2635C8.13213 39.9981 8.47132 40.413 8.8414 40.3625C10.5123 40.1353 14.311 39.6784 14.9193 39.6784C14.0615 38.9495 12.884 37.315 12.3149 36.5554Z" fill="url(#paint37_radial_49_11)"/>
<path d="M14.9195 39.6786C14.4457 39.2777 13.8766 38.5991 13.3635 37.9431C13.3635 37.9431 10.5965 39.3589 7.63037 38.6916C7.97243 39.7739 8.38177 40.4242 8.83873 40.3598C10.5124 40.1326 14.3111 39.6786 14.9195 39.6786Z" fill="url(#paint38_linear_49_11)"/>
<path opacity="0.75" d="M25.6571 12.5659C24.575 12.7986 23.6975 11.3043 23.2013 9.55775C22.7947 8.13082 23.3471 6.31414 24.4097 6.10665C25.4721 5.90203 26.4561 5.89362 27.042 8.91857C27.3869 10.7044 26.7169 12.3388 25.6571 12.5659Z" fill="url(#paint39_radial_49_11)"/>
<path d="M28.6568 37.8649C28.0596 37.9266 27.5213 38.2462 27.1514 38.6862C26.7757 39.1292 26.599 39.7068 26.6383 40.29C26.6412 40.8731 26.7308 41.4729 27.0616 41.9468C27.3896 42.4233 27.9419 42.7093 28.4998 42.9083C27.9251 42.7794 27.3251 42.5412 26.9382 42.0364C26.5485 41.5374 26.4561 40.89 26.4392 40.2926C26.4139 39.6843 26.6074 39.034 27.0392 38.5854C27.4541 38.1312 28.0568 37.8537 28.6568 37.8649Z" fill="#804B24"/>
<path d="M27.7007 32.563C27.3082 32.7339 26.9466 32.9666 26.6465 33.2555C26.3409 33.5414 26.1784 33.9339 26.0691 34.3319V34.3264C25.926 35.0525 26.0465 35.8235 26.4726 36.429C26.8904 37.04 27.5633 37.4411 28.2838 37.6736C27.5436 37.5307 26.798 37.1719 26.3326 36.5298C26.0998 36.213 25.94 35.8459 25.8643 35.459C25.7859 35.072 25.8223 34.6683 25.8952 34.2926L25.8981 34.2871C26.0158 33.8694 26.2232 33.4518 26.5653 33.1686C26.8933 32.8742 27.297 32.6948 27.7007 32.563Z" fill="#804B24"/>
<path d="M28.2304 26.7036C27.5268 26.7849 26.8456 27.0764 26.3577 27.5697C25.8699 28.0633 25.6064 28.7417 25.5643 29.4341C25.4943 30.1237 25.6064 30.8414 25.9988 31.4133C26.3885 31.9881 27.0221 32.3722 27.7033 32.5712C27.008 32.4451 26.3156 32.1002 25.8754 31.5031C25.4269 30.9116 25.3064 30.1322 25.368 29.4174C25.4269 28.6969 25.7101 27.9623 26.2539 27.4604C26.7894 26.953 27.5211 26.7091 28.2304 26.7036Z" fill="#804B24"/>
<path d="M28.8557 20.4345C28.1016 20.6391 27.3531 20.9252 26.7588 21.4128C26.1588 21.898 25.8363 22.6493 25.8868 23.4174C25.8756 24.1799 26.1252 24.9593 26.7083 25.4667C27.2802 25.9798 28.0511 26.2265 28.8138 26.3892C28.0399 26.2994 27.2381 26.1031 26.6074 25.5817C25.9626 25.0658 25.6906 24.2107 25.6879 23.4203C25.6458 22.6157 26.0074 21.7746 26.6634 21.2923C27.3055 20.8018 28.0847 20.5691 28.8557 20.4345Z" fill="#804B24"/>
<path d="M26.2598 36.2075C26.7783 37.1045 27.7735 37.5699 28.7604 37.7045C29.7613 37.8587 30.7734 37.9652 31.7826 38.0297C32.7919 38.1166 33.8066 38.1671 34.8215 38.1643C35.3289 38.1587 35.8365 38.1447 36.3382 38.0942C36.8429 38.0549 37.3503 38.0018 37.8352 37.8419C36.8765 38.2007 35.8365 38.2597 34.8244 38.2933C33.8066 38.3186 32.7862 38.2905 31.7686 38.2231C30.7536 38.1363 29.7415 38.0073 28.738 37.8307C28.2333 37.7467 27.7287 37.5924 27.2886 37.3232C26.8484 37.054 26.4868 36.6617 26.2598 36.2075Z" fill="#804B24"/>
<path d="M26.1392 31.7053C26.526 32.0921 27.0279 32.3474 27.5493 32.4763C28.068 32.6304 28.6147 32.5968 29.164 32.6221L32.4414 32.7173L35.7187 32.88C36.8065 32.9472 37.9111 32.9613 38.9539 32.6052C37.9392 33.037 36.798 33.0734 35.7159 33.0146L32.4387 32.9193L29.1614 32.7566C28.6231 32.7202 28.0568 32.7454 27.524 32.5716C26.9971 32.4062 26.5036 32.1147 26.1392 31.7053Z" fill="#804B24"/>
<path d="M37.849 26.6841C37.064 26.6867 36.2819 26.7093 35.4969 26.7008L33.1447 26.7065L30.7955 26.7401C30.0133 26.7456 29.2284 26.7484 28.4489 26.7794H28.4434C27.6723 26.7653 26.8734 27.0288 26.3182 27.5811C25.752 28.1278 25.4857 28.9212 25.4492 29.7147C25.4547 29.3164 25.4969 28.9184 25.6202 28.5344C25.7436 28.1502 25.9538 27.7941 26.2398 27.5054C26.8117 26.9195 27.633 26.6279 28.4462 26.6251H28.4405C30.0105 26.5298 31.5776 26.5298 33.1475 26.555C34.7148 26.5691 36.2819 26.5971 37.849 26.6841Z" fill="#804B24"/>
<defs>
<linearGradient id="paint0_linear_49_11" x1="32.2148" y1="23.5565" x2="20.7837" y2="24.0153" gradientUnits="userSpaceOnUse">
<stop offset="0.00132565" stop-color="#F0C492"/>
<stop offset="1" stop-color="#F8DBBA"/>
</linearGradient>
<linearGradient id="paint1_linear_49_11" x1="22.6047" y1="27.7639" x2="15.2911" y2="56.4201" gradientUnits="userSpaceOnUse">
<stop offset="0.3118" stop-color="#F0C492" stop-opacity="0"/>
<stop offset="1" stop-color="#E6AF74"/>
</linearGradient>
<linearGradient id="paint2_linear_49_11" x1="12.1791" y1="11.8787" x2="34.2341" y2="13.5314" gradientUnits="userSpaceOnUse">
<stop offset="0.3118" stop-color="#F0C492" stop-opacity="0"/>
<stop offset="1" stop-color="#E6AF74"/>
</linearGradient>
<linearGradient id="paint3_linear_49_11" x1="5.4421" y1="31.4784" x2="37.3579" y2="31.4784" gradientUnits="userSpaceOnUse">
<stop offset="0.3118" stop-color="#F0C492" stop-opacity="0"/>
<stop offset="1" stop-color="#E6AF74"/>
</linearGradient>
<linearGradient id="paint4_linear_49_11" x1="5.2905" y1="32.1879" x2="34.8658" y2="32.1879" gradientUnits="userSpaceOnUse">
<stop offset="0.3118" stop-color="#F0C492" stop-opacity="0"/>
<stop offset="1" stop-color="#E6AF74"/>
</linearGradient>
<linearGradient id="paint5_linear_49_11" x1="-0.325648" y1="31.6096" x2="58.9437" y2="32.2935" gradientUnits="userSpaceOnUse">
<stop stop-color="#D2A374" stop-opacity="0"/>
<stop offset="1" stop-color="#B88653"/>
</linearGradient>
<linearGradient id="paint6_linear_49_11" x1="27.0203" y1="31.7184" x2="34.9106" y2="30.6818" gradientUnits="userSpaceOnUse">
<stop stop-color="#643800" stop-opacity="0"/>
<stop offset="1" stop-color="#643800"/>
</linearGradient>
<radialGradient id="paint7_radial_49_11" cx="0" cy="0" r="1" gradientUnits="userSpaceOnUse" gradientTransform="translate(9.77098 14.4197) scale(16.6809)">
<stop stop-color="#F0C492" stop-opacity="0"/>
<stop offset="1" stop-color="#F0C492"/>
</radialGradient>
<linearGradient id="paint8_linear_49_11" x1="32.6361" y1="26.834" x2="33.2441" y2="11.7127" gradientUnits="userSpaceOnUse">
<stop offset="0.00132565" stop-color="#F0C492"/>
<stop offset="1" stop-color="#F8DBBA"/>
</linearGradient>
<linearGradient id="paint9_linear_49_11" x1="39.2141" y1="35.2306" x2="28.0111" y2="35.2306" gradientUnits="userSpaceOnUse">
<stop offset="0.00132565" stop-color="#F0C492"/>
<stop offset="1" stop-color="#F8DBBA"/>
</linearGradient>
<linearGradient id="paint10_linear_49_11" x1="39.2139" y1="40.5315" x2="28.0171" y2="40.5315" gradientUnits="userSpaceOnUse">
<stop offset="0.00132565" stop-color="#F0C492"/>
<stop offset="1" stop-color="#F8DBBA"/>
</linearGradient>
<linearGradient id="paint11_linear_49_11" x1="24.6773" y1="23.5012" x2="30.5091" y2="23.3682" gradientUnits="userSpaceOnUse">
<stop offset="0.00132565" stop-color="#F0C492"/>
<stop offset="1" stop-color="#EFD8B7"/>
</linearGradient>
<linearGradient id="paint12_linear_49_11" x1="36.7063" y1="35.3104" x2="30.7614" y2="35.3104" gradientUnits="userSpaceOnUse">
<stop offset="0.00132565" stop-color="#F0C492"/>
<stop offset="1" stop-color="#EFD8B7"/>
</linearGradient>
<linearGradient id="paint13_linear_49_11" x1="35.6226" y1="46.6636" x2="25.7063" y2="30.3266" gradientUnits="userSpaceOnUse">
<stop offset="0.00132565" stop-color="#F0C492"/>
<stop offset="1" stop-color="#EFD8B7"/>
</linearGradient>
<linearGradient id="paint14_linear_49_11" x1="10.1492" y1="31.3952" x2="6.64637" y2="31.3952" gradientUnits="userSpaceOnUse">
<stop offset="0.3118" stop-color="#F0C492" stop-opacity="0"/>
<stop offset="1" stop-color="#E6AF74"/>
</linearGradient>
<linearGradient id="paint15_linear_49_11" x1="29.4494" y1="23.3229" x2="26.2774" y2="23.3229" gradientUnits="userSpaceOnUse">
<stop offset="0.3118" stop-color="#F0C492" stop-opacity="0"/>
<stop offset="1" stop-color="#E6AF74"/>
</linearGradient>
<linearGradient id="paint16_linear_49_11" x1="28.8799" y1="23.4139" x2="25.2321" y2="23.4139" gradientUnits="userSpaceOnUse">
<stop offset="0.3118" stop-color="#F0C492" stop-opacity="0"/>
<stop offset="1" stop-color="#E6AF74"/>
</linearGradient>
<radialGradient id="paint17_radial_49_11" cx="0" cy="0" r="1" gradientUnits="userSpaceOnUse" gradientTransform="translate(20.0674 37.054) rotate(23.5256) scale(4.45124 2.06663)">
<stop stop-color="#F8E6D2"/>
<stop offset="0.7237" stop-color="#F8E6D2" stop-opacity="0"/>
</radialGradient>
<radialGradient id="paint18_radial_49_11" cx="0" cy="0" r="1" gradientUnits="userSpaceOnUse" gradientTransform="translate(33.5712 23.4329) rotate(2.02715) scale(3.80827 2.49952)">
<stop stop-color="#F8E6D2"/>
<stop offset="1" stop-color="#F8E6D2" stop-opacity="0"/>
</radialGradient>
<radialGradient id="paint19_radial_49_11" cx="0" cy="0" r="1" gradientUnits="userSpaceOnUse" gradientTransform="translate(33.3546 35.702) rotate(-0.054387) scale(4.09115 2.20462)">
<stop stop-color="#F8E6D2"/>
<stop offset="1" stop-color="#F8E6D2" stop-opacity="0"/>
</radialGradient>
<radialGradient id="paint20_radial_49_11" cx="0" cy="0" r="1" gradientUnits="userSpaceOnUse" gradientTransform="translate(31.9216 40.6574) rotate(-0.0539336) scale(3.74635 2.34347)">
<stop stop-color="#F8E6D2"/>
<stop offset="1" stop-color="#F8E6D2" stop-opacity="0"/>
</radialGradient>
<linearGradient id="paint21_linear_49_11" x1="29.8298" y1="35.1675" x2="25.2325" y2="35.1675" gradientUnits="userSpaceOnUse">
<stop offset="0.3118" stop-color="#F0C492" stop-opacity="0"/>
<stop offset="1" stop-color="#E6AF74"/>
</linearGradient>
<linearGradient id="paint22_linear_49_11" x1="28.8522" y1="35.0071" x2="26.376" y2="35.0071" gradientUnits="userSpaceOnUse">
<stop offset="0.3118" stop-color="#F0C492" stop-opacity="0"/>
<stop offset="1" stop-color="#E6AF74"/>
</linearGradient>
<linearGradient id="paint23_linear_49_11" x1="29.6644" y1="40.5617" x2="24.2882" y2="39.5738" gradientUnits="userSpaceOnUse">
<stop offset="0.3118" stop-color="#F0C492" stop-opacity="0"/>
<stop offset="1" stop-color="#E6AF74"/>
</linearGradient>
<linearGradient id="paint24_linear_49_11" x1="29.1082" y1="40.3861" x2="26.8359" y2="40.3861" gradientUnits="userSpaceOnUse">
<stop offset="0.3118" stop-color="#F0C492" stop-opacity="0"/>
<stop offset="1" stop-color="#E6AF74"/>
</linearGradient>
<linearGradient id="paint25_linear_49_11" x1="32.7312" y1="22.6994" x2="34.1749" y2="29.6901" gradientUnits="userSpaceOnUse">
<stop stop-color="#E6AF74" stop-opacity="0"/>
<stop offset="1" stop-color="#E6AF74"/>
</linearGradient>
<linearGradient id="paint26_linear_49_11" x1="32.9112" y1="36.6885" x2="33.4242" y2="30.7616" gradientUnits="userSpaceOnUse">
<stop stop-color="#D2A374" stop-opacity="0"/>
<stop offset="1" stop-color="#B88653"/>
</linearGradient>
<linearGradient id="paint27_linear_49_11" x1="39.2139" y1="29.8012" x2="28.0171" y2="29.8012" gradientUnits="userSpaceOnUse">
<stop offset="0.00132565" stop-color="#F0C492"/>
<stop offset="1" stop-color="#F8DBBA"/>
</linearGradient>
<linearGradient id="paint28_linear_49_11" x1="32.7838" y1="33.6571" x2="33.8476" y2="22.9051" gradientUnits="userSpaceOnUse">
<stop offset="0.00132565" stop-color="#F0C492"/>
<stop offset="1" stop-color="#EFD8B7"/>
</linearGradient>
<linearGradient id="paint29_linear_49_11" x1="30.9121" y1="29.6854" x2="24.5041" y2="29.6854" gradientUnits="userSpaceOnUse">
<stop offset="0.3118" stop-color="#F0C492" stop-opacity="0"/>
<stop offset="1" stop-color="#E6AF74"/>
</linearGradient>
<radialGradient id="paint30_radial_49_11" cx="0" cy="0" r="1" gradientUnits="userSpaceOnUse" gradientTransform="translate(34.6232 29.7004) rotate(-2.73441) scale(4.34677 2.8515)">
<stop stop-color="#F8E6D2"/>
<stop offset="1" stop-color="#F8E6D2" stop-opacity="0"/>
</radialGradient>
<linearGradient id="paint31_linear_49_11" x1="27.9339" y1="29.6778" x2="25.9106" y2="29.6778" gradientUnits="userSpaceOnUse">
<stop offset="0.3118" stop-color="#F0C492" stop-opacity="0"/>
<stop offset="1" stop-color="#E6AF74"/>
</linearGradient>
<linearGradient id="paint32_linear_49_11" x1="33.2619" y1="29.0617" x2="34.4777" y2="36.7933" gradientUnits="userSpaceOnUse">
<stop stop-color="#E6AF74" stop-opacity="0"/>
<stop offset="1" stop-color="#E6AF74"/>
</linearGradient>
<linearGradient id="paint33_linear_49_11" x1="32.4189" y1="35.0429" x2="35.5344" y2="41.8055" gradientUnits="userSpaceOnUse">
<stop stop-color="#E6AF74" stop-opacity="0"/>
<stop offset="1" stop-color="#E6AF74"/>
</linearGradient>
<linearGradient id="paint34_linear_49_11" x1="31.7977" y1="40.9742" x2="32.2537" y2="45.2485" gradientUnits="userSpaceOnUse">
<stop stop-color="#E6AF74" stop-opacity="0"/>
<stop offset="1" stop-color="#E6AF74"/>
</linearGradient>
<linearGradient id="paint35_linear_49_11" x1="31.9055" y1="40.3262" x2="31.9055" y2="37.2343" gradientUnits="userSpaceOnUse">
<stop stop-color="#FFBA47" stop-opacity="0"/>
<stop offset="1" stop-color="#C66F34"/>
</linearGradient>
<linearGradient id="paint36_linear_49_11" x1="11.0212" y1="31.7906" x2="1.333" y2="46.437" gradientUnits="userSpaceOnUse">
<stop offset="0.3118" stop-color="#F0C492" stop-opacity="0"/>
<stop offset="1" stop-color="#D2A374"/>
</linearGradient>
<radialGradient id="paint37_radial_49_11" cx="0" cy="0" r="1" gradientUnits="userSpaceOnUse" gradientTransform="translate(11.4014 38.3353) scale(2.8771 2.8771)">
<stop stop-color="#F0C492" stop-opacity="0"/>
<stop offset="1" stop-color="#F0C492"/>
</radialGradient>
<linearGradient id="paint38_linear_49_11" x1="11.3482" y1="36.3657" x2="11.1203" y2="45.0852" gradientUnits="userSpaceOnUse">
<stop stop-color="#F0C492" stop-opacity="0"/>
<stop offset="1" stop-color="#E6AF74"/>
</linearGradient>
<radialGradient id="paint39_radial_49_11" cx="0" cy="0" r="1" gradientUnits="userSpaceOnUse" gradientTransform="translate(25.1311 9.3199) rotate(79.0631) scale(3.24782 1.90629)">
<stop stop-color="#F8E6D2"/>
<stop offset="1" stop-color="#F8E6D2" stop-opacity="0"/>
</radialGradient>
</defs>
</svg>
