<svg width="48" height="48" viewBox="0 0 48 48" fill="none" xmlns="http://www.w3.org/2000/svg">
<path d="M24.3428 42.4802C34.4417 42.4802 42.6286 34.2933 42.6286 24.1944C42.6286 14.0955 34.4417 5.90869 24.3428 5.90869C14.2439 5.90869 6.05713 14.0955 6.05713 24.1944C6.05713 34.2933 14.2439 42.4802 24.3428 42.4802Z" fill="url(#paint0_radial_20_64)"/>
<path opacity="0.5" d="M24.3428 42.4802C34.4417 42.4802 42.6286 34.2933 42.6286 24.1944C42.6286 14.0955 34.4417 5.90869 24.3428 5.90869C14.2439 5.90869 6.05713 14.0955 6.05713 24.1944C6.05713 34.2933 14.2439 42.4802 24.3428 42.4802Z" fill="url(#paint1_radial_20_64)"/>
<path opacity="0.5" d="M24.3428 42.4802C34.4417 42.4802 42.6286 34.2933 42.6286 24.1944C42.6286 14.0955 34.4417 5.90869 24.3428 5.90869C14.2439 5.90869 6.05713 14.0955 6.05713 24.1944C6.05713 34.2933 14.2439 42.4802 24.3428 42.4802Z" fill="url(#paint2_radial_20_64)"/>
<path opacity="0.5" d="M24.3428 42.4802C34.4417 42.4802 42.6286 34.2933 42.6286 24.1944C42.6286 14.0955 34.4417 5.90869 24.3428 5.90869C14.2439 5.90869 6.05713 14.0955 6.05713 24.1944C6.05713 34.2933 14.2439 42.4802 24.3428 42.4802Z" fill="url(#paint3_radial_20_64)"/>
<path d="M24.3426 36.3544C19.074 36.3544 17.394 30.7087 18.9941 31.5886C21.1426 32.7772 22.5141 32.8915 24.3426 32.8915C26.1712 32.8915 27.5312 32.7772 29.6912 31.5886C31.2912 30.7087 29.6112 36.3544 24.3426 36.3544Z" fill="#643800"/>
<path d="M29.6914 31.5888C27.5429 32.7773 26.1715 32.8916 24.3429 32.8916C22.5143 32.8916 21.1543 32.7773 18.9943 31.5888C18.4343 31.2802 18.2743 31.7602 18.5257 32.5259C18.5257 32.5145 18.6057 31.6916 19.36 32.263C19.36 32.263 22.1372 33.9316 24.3314 33.9316C26.5257 33.9316 29.3029 32.263 29.3029 32.263C30.0572 31.7031 30.1372 32.5145 30.1372 32.5259C30.4114 31.7716 30.2515 31.2802 29.6914 31.5888Z" fill="url(#paint4_linear_20_64)"/>
<path d="M20.3541 17.5317C20.4569 16.8003 19.7255 16.2403 18.3769 16.0689C17.2226 15.9203 14.6283 16.206 12.5826 18.206C12.2055 18.5717 12.6741 18.8689 13.0169 18.6403C14.2055 17.8746 17.2226 17.0975 19.4169 17.6346C20.3083 17.8517 20.3541 17.5317 20.3541 17.5317Z" fill="url(#paint5_linear_20_64)"/>
<path d="M28.3313 17.5317C28.2284 16.8003 28.9599 16.2403 30.3085 16.0689C31.4627 15.9203 34.057 16.206 36.1027 18.206C36.4799 18.5717 36.0113 18.8689 35.6684 18.6403C34.4799 17.8746 31.4627 17.0975 29.2685 17.6346C28.3771 17.8517 28.3313 17.5317 28.3313 17.5317Z" fill="url(#paint6_linear_20_64)"/>
<path d="M31.9201 21.9772C31.9201 21.9772 34.9372 22.5029 35.6115 24.8572C35.6572 25.0058 35.6687 25.1658 35.6572 25.3143C35.6344 25.6229 35.3259 25.92 34.8115 25.5886C31.6116 23.52 29.6344 24.24 28.1601 24.7429C27.5887 24.9372 27.1315 24.3315 27.3373 23.8515C27.3944 23.7143 27.4401 23.5658 27.5316 23.4401C28.903 21.4401 31.9201 21.9772 31.9201 21.9772Z" fill="url(#paint7_radial_20_64)"/>
<path d="M31.7943 22.6972C31.7943 22.6972 34.2514 23.1201 35.6457 25.1315C35.6343 25.0401 35.6228 24.9486 35.5999 24.8572C34.9257 22.5029 31.9085 21.9772 31.9085 21.9772C31.9085 21.9772 28.9028 21.4401 27.5085 23.4286C27.4514 23.5086 27.4171 23.5886 27.3828 23.6686C29.3485 22.2629 31.7943 22.6972 31.7943 22.6972Z" fill="url(#paint8_linear_20_64)"/>
<path d="M16.7657 21.9772C16.7657 21.9772 13.7485 22.5029 13.0743 24.8572C13.0285 25.0058 13.0171 25.1658 13.0285 25.3143C13.0514 25.6229 13.36 25.92 13.8742 25.5886C17.0742 23.52 19.0514 24.24 20.5257 24.7429C21.0971 24.9372 21.5542 24.3315 21.3486 23.8515C21.2914 23.7143 21.2457 23.5658 21.1542 23.4401C19.7828 21.4401 16.7657 21.9772 16.7657 21.9772Z" fill="url(#paint9_radial_20_64)"/>
<path d="M16.8914 22.6972C16.8914 22.6972 14.4343 23.1201 13.04 25.1315C13.0514 25.0401 13.0629 24.9486 13.0858 24.8572C13.76 22.5029 16.7772 21.9772 16.7772 21.9772C16.7772 21.9772 19.7829 21.4401 21.1772 23.4286C21.2343 23.5086 21.2686 23.5886 21.3029 23.6686C19.3372 22.2629 16.8914 22.6972 16.8914 22.6972Z" fill="url(#paint10_linear_20_64)"/>
<path opacity="0.5" d="M24.3428 42.4802C34.4417 42.4802 42.6286 34.2933 42.6286 24.1944C42.6286 14.0955 34.4417 5.90869 24.3428 5.90869C14.2439 5.90869 6.05713 14.0955 6.05713 24.1944C6.05713 34.2933 14.2439 42.4802 24.3428 42.4802Z" fill="url(#paint11_radial_20_64)"/>
<path opacity="0.5" d="M24.3428 42.4802C34.4417 42.4802 42.6286 34.2933 42.6286 24.1944C42.6286 14.0955 34.4417 5.90869 24.3428 5.90869C14.2439 5.90869 6.05713 14.0955 6.05713 24.1944C6.05713 34.2933 14.2439 42.4802 24.3428 42.4802Z" fill="url(#paint12_radial_20_64)"/>
<path opacity="0.5" d="M24.3428 42.4802C34.4417 42.4802 42.6286 34.2933 42.6286 24.1944C42.6286 14.0955 34.4417 5.90869 24.3428 5.90869C14.2439 5.90869 6.05713 14.0955 6.05713 24.1944C6.05713 34.2933 14.2439 42.4802 24.3428 42.4802Z" fill="url(#paint13_radial_20_64)"/>
<path d="M36.6285 4.68567C35.5199 4.68567 34.537 5.24567 33.9541 6.09139C33.3713 5.24567 32.3884 4.68567 31.2799 4.68567C29.4856 4.68567 28.0342 6.13711 28.0342 7.93141C28.0342 11.8856 33.9541 15.44 33.9541 15.44C33.9541 15.44 39.8742 11.8856 39.8742 7.93141C39.8742 6.13711 38.4228 4.68567 36.6285 4.68567Z" fill="url(#paint14_radial_20_64)"/>
<path opacity="0.5" d="M37.9656 4.97144C39.737 7.80569 38.1027 11.52 36.137 12.5714C33.9655 13.7372 32.4913 13.1886 29.417 11.44C31.1655 13.76 33.9427 15.4286 33.9427 15.4286C33.9427 15.4286 39.8627 11.8743 39.8627 7.91999C39.8741 6.61715 39.097 5.48572 37.9656 4.97144Z" fill="url(#paint15_radial_20_64)"/>
<path opacity="0.5" d="M36.6285 4.68567C35.5199 4.68567 34.537 5.24567 33.9541 6.09139C33.3713 5.24567 32.3884 4.68567 31.2799 4.68567C29.4856 4.68567 28.0342 6.13711 28.0342 7.93141C28.0342 11.8856 33.9541 15.44 33.9541 15.44C33.9541 15.44 39.8742 11.8856 39.8742 7.93141C39.8742 6.13711 38.4228 4.68567 36.6285 4.68567Z" fill="url(#paint16_radial_20_64)"/>
<path opacity="0.5" d="M36.6285 4.68567C35.5199 4.68567 34.537 5.24567 33.9541 6.09139C33.3713 5.24567 32.3884 4.68567 31.2799 4.68567C29.4856 4.68567 28.0342 6.13711 28.0342 7.93141C28.0342 11.8856 33.9541 15.44 33.9541 15.44C33.9541 15.44 39.8742 11.8856 39.8742 7.93141C39.8742 6.13711 38.4228 4.68567 36.6285 4.68567Z" fill="url(#paint17_radial_20_64)"/>
<path opacity="0.24" d="M33.143 5.99993C33.463 6.76562 32.743 7.80566 31.5316 8.31992C30.3201 8.83424 29.063 8.6399 28.743 7.87424C28.423 7.10852 29.143 6.06848 30.3544 5.55421C31.5658 5.03993 32.823 5.23422 33.143 5.99993Z" fill="url(#paint18_radial_20_64)"/>
<path opacity="0.24" d="M37.1087 5.38305C37.5659 5.89734 37.2916 6.90304 36.4688 7.6345C35.6573 8.3659 34.6288 8.54878 34.1602 8.03446C33.703 7.5202 33.9773 6.51448 34.8002 5.78305C35.6116 5.05162 36.6516 4.86877 37.1087 5.38305Z" fill="url(#paint19_radial_20_64)"/>
<path opacity="0.32" d="M36.6858 5.54289C38.3086 6.10288 39.8629 8.50288 37.2458 11.4972C35.6686 13.2915 33.9543 14.1943 31.7715 13.8401C32.9486 14.8229 33.9543 15.4286 33.9543 15.4286C33.9543 15.4286 39.8744 11.8743 39.8744 7.92004C39.8744 6.12574 38.4229 4.67432 36.6286 4.67432C35.52 4.67432 34.5372 5.23431 33.9543 6.08002C33.9543 6.09148 35.4972 5.14289 36.6858 5.54289Z" fill="url(#paint20_linear_20_64)"/>
<path d="M13.5083 27.8171C12.3998 27.8171 11.4169 28.3771 10.8341 29.2228C10.2512 28.3657 9.26836 27.8171 8.1598 27.8171C6.3655 27.8171 4.91406 29.2685 4.91406 31.0514C4.91406 35.0057 10.8341 38.56 10.8341 38.56C10.8341 38.56 16.7541 35.0057 16.7541 31.0514C16.7541 29.2685 15.3026 27.8171 13.5083 27.8171Z" fill="url(#paint21_radial_20_64)"/>
<path opacity="0.5" d="M14.8454 28.1029C16.6169 30.9372 14.9826 34.6515 13.0169 35.7029C10.8455 36.8687 9.37115 36.3201 6.29688 34.5715C8.04545 36.8915 10.8226 38.5601 10.8226 38.5601C10.8226 38.5601 16.7426 35.0058 16.7426 31.0515C16.754 29.7372 15.9769 28.6058 14.8454 28.1029Z" fill="url(#paint22_radial_20_64)"/>
<path opacity="0.5" d="M13.5083 27.8171C12.3998 27.8171 11.4169 28.3771 10.8341 29.2228C10.2512 28.3657 9.26836 27.8171 8.1598 27.8171C6.3655 27.8171 4.91406 29.2685 4.91406 31.0514C4.91406 35.0057 10.8341 38.56 10.8341 38.56C10.8341 38.56 16.7541 35.0057 16.7541 31.0514C16.7541 29.2685 15.3026 27.8171 13.5083 27.8171Z" fill="url(#paint23_radial_20_64)"/>
<path opacity="0.5" d="M13.5083 27.8171C12.3998 27.8171 11.4169 28.3771 10.8341 29.2228C10.2512 28.3657 9.26836 27.8171 8.1598 27.8171C6.3655 27.8171 4.91406 29.2685 4.91406 31.0514C4.91406 35.0057 10.8341 38.56 10.8341 38.56C10.8341 38.56 16.7541 35.0057 16.7541 31.0514C16.7541 29.2685 15.3026 27.8171 13.5083 27.8171Z" fill="url(#paint24_radial_20_64)"/>
<path opacity="0.24" d="M10.0228 29.1315C10.3429 29.8972 9.62287 30.9373 8.41141 31.4515C7.20001 31.9658 5.94285 31.7715 5.62285 31.0058C5.30285 30.2401 6.02287 29.2001 7.23427 28.6858C8.44573 28.1601 9.70285 28.3658 10.0228 29.1315Z" fill="url(#paint25_radial_20_64)"/>
<path opacity="0.24" d="M13.9888 28.5145C14.4459 29.0288 14.1717 30.0345 13.3488 30.7659C12.5374 31.4974 11.5088 31.6802 11.0403 31.166C10.5717 30.6516 10.8574 29.646 11.6802 28.9145C12.4917 28.1831 13.5316 28.0002 13.9888 28.5145Z" fill="url(#paint26_radial_20_64)"/>
<path opacity="0.32" d="M13.5657 28.6743C15.1885 29.2344 16.7428 31.6344 14.1257 34.6286C12.5485 36.4229 10.8342 37.3258 8.65137 36.9715C9.82857 37.9544 10.8342 38.5601 10.8342 38.5601C10.8342 38.5601 16.7542 35.0058 16.7542 31.0515C16.7542 29.2572 15.3028 27.8058 13.5085 27.8058C12.4 27.8058 11.4171 28.3658 10.8342 29.2115C10.8342 29.2229 12.3771 28.2629 13.5657 28.6743Z" fill="url(#paint27_linear_20_64)"/>
<path d="M39.8399 32.5029C38.7313 32.5029 37.7485 33.0629 37.1656 33.9087C36.5827 33.0515 35.5999 32.5029 34.4913 32.5029C32.697 32.5029 31.2456 33.9544 31.2456 35.7486C31.2456 39.7029 37.1656 43.2572 37.1656 43.2572C37.1656 43.2572 43.0856 39.7029 43.0856 35.7486C43.0856 33.9544 41.6342 32.5029 39.8399 32.5029Z" fill="url(#paint28_radial_20_64)"/>
<path opacity="0.5" d="M41.1887 32.7886C42.9601 35.6229 41.3259 39.3372 39.3601 40.3886C37.1887 41.5543 35.7144 41.0057 32.6401 39.2572C34.3887 41.5771 37.1659 43.2457 37.1659 43.2457C37.1659 43.2457 43.0858 39.6915 43.0858 35.7372C43.0858 34.4229 42.3087 33.2914 41.1887 32.7886Z" fill="url(#paint29_radial_20_64)"/>
<path opacity="0.5" d="M39.8399 32.5029C38.7313 32.5029 37.7485 33.0629 37.1656 33.9087C36.5827 33.0515 35.5999 32.5029 34.4913 32.5029C32.697 32.5029 31.2456 33.9544 31.2456 35.7486C31.2456 39.7029 37.1656 43.2572 37.1656 43.2572C37.1656 43.2572 43.0856 39.7029 43.0856 35.7486C43.0856 33.9544 41.6342 32.5029 39.8399 32.5029Z" fill="url(#paint30_radial_20_64)"/>
<path opacity="0.5" d="M39.8399 32.5029C38.7313 32.5029 37.7485 33.0629 37.1656 33.9087C36.5827 33.0515 35.5999 32.5029 34.4913 32.5029C32.697 32.5029 31.2456 33.9544 31.2456 35.7486C31.2456 39.7029 37.1656 43.2572 37.1656 43.2572C37.1656 43.2572 43.0856 39.7029 43.0856 35.7486C43.0856 33.9544 41.6342 32.5029 39.8399 32.5029Z" fill="url(#paint31_radial_20_64)"/>
<path opacity="0.24" d="M36.3544 33.8172C36.6744 34.5829 35.9544 35.6229 34.743 36.1372C33.5315 36.6515 32.2744 36.4572 31.9544 35.6915C31.6344 34.9258 32.3544 33.8858 33.5659 33.3715C34.7773 32.8458 36.0344 33.0515 36.3544 33.8172Z" fill="url(#paint32_radial_20_64)"/>
<path opacity="0.24" d="M40.3202 33.2002C40.7773 33.7145 40.503 34.7202 39.6802 35.4517C38.8687 36.1831 37.8401 36.3659 37.3716 35.8516C36.9145 35.3374 37.1887 34.3316 38.0116 33.6002C38.823 32.8688 39.863 32.6859 40.3202 33.2002Z" fill="url(#paint33_radial_20_64)"/>
<path opacity="0.32" d="M39.8972 33.3601C41.52 33.9201 43.0743 36.3201 40.4572 39.3144C38.88 41.1087 37.1658 42.0115 34.9829 41.6572C36.1601 42.6401 37.1658 43.2459 37.1658 43.2459C37.1658 43.2459 43.0857 39.6916 43.0857 35.7373C43.0857 33.943 41.6343 32.4916 39.84 32.4916C38.7315 32.4916 37.7486 33.0516 37.1658 33.8973C37.1658 33.9087 38.7086 32.9487 39.8972 33.3601Z" fill="url(#paint34_linear_20_64)"/>
<defs>
<radialGradient id="paint0_radial_20_64" cx="0" cy="0" r="1" gradientUnits="userSpaceOnUse" gradientTransform="translate(20.7451 16.7877) scale(22.0594)">
<stop stop-color="#FFE030"/>
<stop offset="1" stop-color="#FFB92E"/>
</radialGradient>
<radialGradient id="paint1_radial_20_64" cx="0" cy="0" r="1" gradientUnits="userSpaceOnUse" gradientTransform="translate(20.7451 16.7877) scale(17.3551 17.3551)">
<stop stop-color="#FFEA5F"/>
<stop offset="1" stop-color="#FFBC47" stop-opacity="0"/>
</radialGradient>
<radialGradient id="paint2_radial_20_64" cx="0" cy="0" r="1" gradientUnits="userSpaceOnUse" gradientTransform="translate(14.3806 28.7474) rotate(-2.7703) scale(7.6914 6.0858)">
<stop stop-color="#FF4C00"/>
<stop offset="0.1542" stop-color="#FF4C00"/>
<stop offset="0.1795" stop-color="#FF4C00"/>
<stop offset="0.3996" stop-color="#FB4C0B" stop-opacity="0.7318"/>
<stop offset="0.7799" stop-color="#EF4B27" stop-opacity="0.2683"/>
<stop offset="1" stop-color="#E74A3A" stop-opacity="0"/>
</radialGradient>
<radialGradient id="paint3_radial_20_64" cx="0" cy="0" r="1" gradientUnits="userSpaceOnUse" gradientTransform="translate(34.299 28.7474) rotate(-177.23) scale(7.6914 6.0858)">
<stop stop-color="#FF4C00"/>
<stop offset="0.1542" stop-color="#FF4C00"/>
<stop offset="0.1795" stop-color="#FF4C00"/>
<stop offset="0.3996" stop-color="#FB4C0B" stop-opacity="0.7318"/>
<stop offset="0.7799" stop-color="#EF4B27" stop-opacity="0.2683"/>
<stop offset="1" stop-color="#E74A3A" stop-opacity="0"/>
</radialGradient>
<linearGradient id="paint4_linear_20_64" x1="24.3426" y1="29.5076" x2="24.3426" y2="33.8084" gradientUnits="userSpaceOnUse">
<stop offset="0.00132565" stop-color="#3C2200"/>
<stop offset="1" stop-color="#512D00"/>
</linearGradient>
<linearGradient id="paint5_linear_20_64" x1="16.3672" y1="18.2289" x2="16.6235" y2="16.3193" gradientUnits="userSpaceOnUse">
<stop offset="0.00132565" stop-color="#3C2200"/>
<stop offset="1" stop-color="#7A4400"/>
</linearGradient>
<linearGradient id="paint6_linear_20_64" x1="32.3169" y1="18.2291" x2="32.0606" y2="16.3195" gradientUnits="userSpaceOnUse">
<stop offset="0.00132565" stop-color="#3C2200"/>
<stop offset="1" stop-color="#7A4400"/>
</linearGradient>
<radialGradient id="paint7_radial_20_64" cx="0" cy="0" r="1" gradientUnits="userSpaceOnUse" gradientTransform="translate(31.6229 23.6765) rotate(9.9808) scale(3.28627 1.58559)">
<stop offset="0.00132565" stop-color="#7A4400"/>
<stop offset="1" stop-color="#643800"/>
</radialGradient>
<linearGradient id="paint8_linear_20_64" x1="32.101" y1="21.0311" x2="31.7449" y2="23.1242" gradientUnits="userSpaceOnUse">
<stop offset="0.00132565" stop-color="#3C2200"/>
<stop offset="1" stop-color="#512D00"/>
</linearGradient>
<radialGradient id="paint9_radial_20_64" cx="0" cy="0" r="1" gradientUnits="userSpaceOnUse" gradientTransform="translate(17.1084 23.6262) rotate(170.019) scale(3.28627 1.58559)">
<stop offset="0.00132565" stop-color="#7A4400"/>
<stop offset="1" stop-color="#643800"/>
</radialGradient>
<linearGradient id="paint10_linear_20_64" x1="16.5552" y1="21.0138" x2="16.9112" y2="23.1069" gradientUnits="userSpaceOnUse">
<stop offset="0.00132565" stop-color="#3C2200"/>
<stop offset="1" stop-color="#512D00"/>
</linearGradient>
<radialGradient id="paint11_radial_20_64" cx="0" cy="0" r="1" gradientUnits="userSpaceOnUse" gradientTransform="translate(35.8989 11.261) rotate(-177.23) scale(7.6914 6.0858)">
<stop stop-color="#FF4C00"/>
<stop offset="0.1542" stop-color="#FF4C00"/>
<stop offset="0.1795" stop-color="#FF4C00"/>
<stop offset="0.3996" stop-color="#FB4C0B" stop-opacity="0.7318"/>
<stop offset="0.7799" stop-color="#EF4B27" stop-opacity="0.2683"/>
<stop offset="1" stop-color="#E74A3A" stop-opacity="0"/>
</radialGradient>
<radialGradient id="paint12_radial_20_64" cx="0" cy="0" r="1" gradientUnits="userSpaceOnUse" gradientTransform="translate(38.2989 39.8716) rotate(-177.23) scale(7.6914 6.0858)">
<stop stop-color="#FF4C00"/>
<stop offset="0.1542" stop-color="#FF4C00"/>
<stop offset="0.1795" stop-color="#FF4C00"/>
<stop offset="0.3996" stop-color="#FB4C0B" stop-opacity="0.7318"/>
<stop offset="0.7799" stop-color="#EF4B27" stop-opacity="0.2683"/>
<stop offset="1" stop-color="#E74A3A" stop-opacity="0"/>
</radialGradient>
<radialGradient id="paint13_radial_20_64" cx="0" cy="0" r="1" gradientUnits="userSpaceOnUse" gradientTransform="translate(9.55705 35.7192) rotate(-177.23) scale(7.6914 6.0858)">
<stop stop-color="#FF4C00"/>
<stop offset="0.1542" stop-color="#FF4C00"/>
<stop offset="0.1795" stop-color="#FF4C00"/>
<stop offset="0.3996" stop-color="#FB4C0B" stop-opacity="0.7318"/>
<stop offset="0.7799" stop-color="#EF4B27" stop-opacity="0.2683"/>
<stop offset="1" stop-color="#E74A3A" stop-opacity="0"/>
</radialGradient>
<radialGradient id="paint14_radial_20_64" cx="0" cy="0" r="1" gradientUnits="userSpaceOnUse" gradientTransform="translate(32.2594 7.68672) rotate(-29.408) scale(9.26292 7.3479)">
<stop offset="0.2479" stop-color="#FF0000"/>
<stop offset="0.8639" stop-color="#C20000"/>
</radialGradient>
<radialGradient id="paint15_radial_20_64" cx="0" cy="0" r="1" gradientUnits="userSpaceOnUse" gradientTransform="translate(32.4885 7.11857) rotate(-29.408) scale(7.97508 6.32628)">
<stop offset="0.2479" stop-color="#FF0000"/>
<stop offset="1" stop-color="#C20000"/>
</radialGradient>
<radialGradient id="paint16_radial_20_64" cx="0" cy="0" r="1" gradientUnits="userSpaceOnUse" gradientTransform="translate(32.2594 7.68672) rotate(-29.408) scale(9.26292 7.3479)">
<stop stop-color="white" stop-opacity="0.25"/>
<stop offset="1" stop-color="white" stop-opacity="0"/>
</radialGradient>
<radialGradient id="paint17_radial_20_64" cx="0" cy="0" r="1" gradientUnits="userSpaceOnUse" gradientTransform="translate(35.5893 10.8298) rotate(-26.296) scale(6.76158 3.34118)">
<stop stop-color="#BD2719" stop-opacity="0.25"/>
<stop offset="1" stop-color="#BD2719" stop-opacity="0"/>
</radialGradient>
<radialGradient id="paint18_radial_20_64" cx="0" cy="0" r="1" gradientUnits="userSpaceOnUse" gradientTransform="translate(30.9418 6.93962) rotate(-21.6908) scale(2.40374 1.49317)">
<stop stop-color="white"/>
<stop offset="1" stop-color="white" stop-opacity="0"/>
</radialGradient>
<radialGradient id="paint19_radial_20_64" cx="0" cy="0" r="1" gradientUnits="userSpaceOnUse" gradientTransform="translate(35.6318 6.71944) rotate(-40.7635) scale(1.99016 1.23634)">
<stop stop-color="white"/>
<stop offset="1" stop-color="white" stop-opacity="0"/>
</radialGradient>
<linearGradient id="paint20_linear_20_64" x1="35.1752" y1="19.6652" x2="36.3222" y2="4.19996" gradientUnits="userSpaceOnUse">
<stop stop-color="#860805"/>
<stop offset="1" stop-color="#BD2719" stop-opacity="0"/>
</linearGradient>
<radialGradient id="paint21_radial_20_64" cx="0" cy="0" r="1" gradientUnits="userSpaceOnUse" gradientTransform="translate(9.14038 30.8118) rotate(-29.408) scale(9.26292 7.3479)">
<stop offset="0.2479" stop-color="#FF0000"/>
<stop offset="0.8639" stop-color="#C20000"/>
</radialGradient>
<radialGradient id="paint22_radial_20_64" cx="0" cy="0" r="1" gradientUnits="userSpaceOnUse" gradientTransform="translate(9.36941 30.2437) rotate(-29.408) scale(7.97508 6.32628)">
<stop offset="0.2479" stop-color="#FF0000"/>
<stop offset="1" stop-color="#C20000"/>
</radialGradient>
<radialGradient id="paint23_radial_20_64" cx="0" cy="0" r="1" gradientUnits="userSpaceOnUse" gradientTransform="translate(9.14038 30.8118) rotate(-29.408) scale(9.26292 7.3479)">
<stop stop-color="white" stop-opacity="0.25"/>
<stop offset="1" stop-color="white" stop-opacity="0"/>
</radialGradient>
<radialGradient id="paint24_radial_20_64" cx="0" cy="0" r="1" gradientUnits="userSpaceOnUse" gradientTransform="translate(12.4707 33.9564) rotate(-26.296) scale(6.76158 3.34118)">
<stop stop-color="#BD2719" stop-opacity="0.25"/>
<stop offset="1" stop-color="#BD2719" stop-opacity="0"/>
</radialGradient>
<radialGradient id="paint25_radial_20_64" cx="0" cy="0" r="1" gradientUnits="userSpaceOnUse" gradientTransform="translate(7.82113 30.0645) rotate(-21.6908) scale(2.40374 1.49317)">
<stop stop-color="white"/>
<stop offset="1" stop-color="white" stop-opacity="0"/>
</radialGradient>
<radialGradient id="paint26_radial_20_64" cx="0" cy="0" r="1" gradientUnits="userSpaceOnUse" gradientTransform="translate(12.5122 29.8466) rotate(-40.7633) scale(1.99016 1.23634)">
<stop stop-color="white"/>
<stop offset="1" stop-color="white" stop-opacity="0"/>
</radialGradient>
<linearGradient id="paint27_linear_20_64" x1="12.0556" y1="42.7912" x2="13.2025" y2="27.326" gradientUnits="userSpaceOnUse">
<stop stop-color="#860805"/>
<stop offset="1" stop-color="#BD2719" stop-opacity="0"/>
</linearGradient>
<radialGradient id="paint28_radial_20_64" cx="0" cy="0" r="1" gradientUnits="userSpaceOnUse" gradientTransform="translate(35.4716 35.4989) rotate(-29.408) scale(9.26292 7.3479)">
<stop offset="0.2479" stop-color="#FF0000"/>
<stop offset="0.8639" stop-color="#C20000"/>
</radialGradient>
<radialGradient id="paint29_radial_20_64" cx="0" cy="0" r="1" gradientUnits="userSpaceOnUse" gradientTransform="translate(35.7009 34.9306) rotate(-29.408) scale(7.97508 6.32628)">
<stop offset="0.2479" stop-color="#FF0000"/>
<stop offset="1" stop-color="#C20000"/>
</radialGradient>
<radialGradient id="paint30_radial_20_64" cx="0" cy="0" r="1" gradientUnits="userSpaceOnUse" gradientTransform="translate(35.4716 35.4989) rotate(-29.408) scale(9.26292 7.3479)">
<stop stop-color="white" stop-opacity="0.25"/>
<stop offset="1" stop-color="white" stop-opacity="0"/>
</radialGradient>
<radialGradient id="paint31_radial_20_64" cx="0" cy="0" r="1" gradientUnits="userSpaceOnUse" gradientTransform="translate(38.802 38.6418) rotate(-26.296) scale(6.76158 3.34118)">
<stop stop-color="#BD2719" stop-opacity="0.25"/>
<stop offset="1" stop-color="#BD2719" stop-opacity="0"/>
</radialGradient>
<radialGradient id="paint32_radial_20_64" cx="0" cy="0" r="1" gradientUnits="userSpaceOnUse" gradientTransform="translate(34.1537 34.7509) rotate(-21.6907) scale(2.40375 1.49317)">
<stop stop-color="white"/>
<stop offset="1" stop-color="white" stop-opacity="0"/>
</radialGradient>
<radialGradient id="paint33_radial_20_64" cx="0" cy="0" r="1" gradientUnits="userSpaceOnUse" gradientTransform="translate(38.8433 34.5325) rotate(-40.7635) scale(1.99016 1.23634)">
<stop stop-color="white"/>
<stop offset="1" stop-color="white" stop-opacity="0"/>
</radialGradient>
<linearGradient id="paint34_linear_20_64" x1="38.3876" y1="47.477" x2="39.5346" y2="32.0118" gradientUnits="userSpaceOnUse">
<stop stop-color="#860805"/>
<stop offset="1" stop-color="#BD2719" stop-opacity="0"/>
</linearGradient>
</defs>
</svg>
